<svg xmlns="http://www.w3.org/2000/svg" version="1.1" xmlns:xlink="http://www.w3.org/1999/xlink" xmlns:svgjs="http://svgjs.dev/svgjs" viewBox="0 0 800 800" opacity="1"><defs><symbol id="bbburst-shape-1" viewBox="0 0 194 167"><path d="m97 0 96.129 166.5H.871L97 0Z"></path></symbol><symbol id="bbburst-shape-4" viewBox="0 0 149 143"><path d="M71.647 2.781c.898-2.764 4.808-2.764 5.706 0l15.445 47.534a3 3 0 0 0 2.853 2.073h49.98c2.906 0 4.115 3.719 1.764 5.427L106.96 87.193a2.999 2.999 0 0 0-1.09 3.354l15.445 47.534c.898 2.764-2.266 5.062-4.617 3.354l-40.435-29.378a3 3 0 0 0-3.526 0l-40.435 29.378c-2.351 1.708-5.515-.59-4.617-3.354L43.13 90.547a3 3 0 0 0-1.09-3.354L1.605 57.815c-2.35-1.708-1.142-5.427 1.764-5.427h49.98a3 3 0 0 0 2.853-2.073L71.647 2.781Z"></path></symbol><symbol id="bbburst-shape-6" viewBox="0 0 133 116"><path d="M59.7487 10.2513c-13.6683-13.66839-35.8291-13.66839-49.4974 0-13.66839 13.6683-13.66839 35.8291 0 49.4974l49.4974-49.4974ZM66.5 66.5 41.7513 91.2487 66.5 115.997l24.7487-24.7483L66.5 66.5Zm56.249-6.7513c13.668-13.6683 13.668-35.8291 0-49.4974-13.669-13.66839-35.8294-13.66839-49.4977 0l49.4977 49.4974Zm-112.4977 0 31.5 31.5 49.4974-49.4974-31.5-31.5-49.4974 49.4974Zm80.9974 31.5 31.5003-31.5-49.4977-49.4974-31.5 31.5 49.4974 49.4974Z"></path></symbol><symbol id="bbburst-shape-8" viewBox="0 0 87 168"><path d="m12 12 31.2546 18.0749c16.4102 9.4902 20.014 31.6325 7.4603 45.8369L36.3296 92.1884c-12.5684 14.2206-8.9394 36.3916 7.5068 45.8636L75 156" stroke-width="14" stroke-linecap="round" stroke-linejoin="round"></path></symbol><symbol id="bbburst-shape-10" viewBox="0 0 145 145"><circle cx="72.5" cy="72.5" r="61.5" fill="none" stroke-width="22"></circle></symbol></defs><use xlink:href="#bbburst-shape-4" width="27.069772695732986" opacity="0.3310546092380099" transform="matrix(0.7491165105377159,-0.6624382640214832,0.6624382640214832,0.7491165105377159,-175.47495558922532,129.0900001234994)" fill="#00a19d"></use><use xlink:href="#bbburst-shape-6" width="6.079225842836789" opacity="0.9416921002310381" transform="matrix(0.9434953901790752,0.33138564952459015,-0.33138564952459015,0.9434953901790752,546.4716447279079,1.4274199785934911)" fill="#2c2891"></use><use xlink:href="#bbburst-shape-1" width="12.831800890568179" opacity="0.6340004057908757" transform="matrix(0.9466479151252228,-0.3222696460870446,0.3222696460870446,0.9466479151252228,158.03282319682612,148.63974658761083)" fill="#2c2891"></use><use xlink:href="#bbburst-shape-10" width="33.457878164163034" opacity="-0.10324666165444185" transform="matrix(0.9864248250752937,-0.16421347227062755,0.16421347227062755,0.9864248250752937,-29.098359941989443,363.3196804605911)" fill="none" stroke="#2c2891"></use><use xlink:href="#bbburst-shape-10" width="13.077616688463369" opacity="0.7667254096690874" transform="matrix(0.9545290042213777,-0.29811806402857427,0.29811806402857427,0.9545290042213777,203.3863724643976,-57.067785309558076)" fill="none" stroke="#ffa6d5"></use><use xlink:href="#bbburst-shape-10" width="15.6894806800535" opacity="0.7291188612397534" transform="matrix(0.722274742299352,0.6916062439252588,-0.6916062439252588,0.722274742299352,740.5461564325817,205.75865520918018)" fill="none" stroke="#ffa6d5"></use><use xlink:href="#bbburst-shape-1" width="9.44332289227026" opacity="0.7726117631791473" transform="matrix(0.9301349002689354,-0.36721801059002757,0.36721801059002757,0.9301349002689354,169.0193954315498,93.85731029739009)" fill="#ffa6d5"></use><use xlink:href="#bbburst-shape-6" width="7.776210851670372" opacity="0.8976759905972295" transform="matrix(0.8437283675105066,-0.5367703809433373,0.5367703809433373,0.8437283675105066,198.21614106294635,107.69590756804126)" fill="#00a19d"></use><use xlink:href="#bbburst-shape-10" width="11.717408070532239" opacity="0.6922402245593352" transform="matrix(0.9675167750650469,0.2528068234200407,-0.2528068234200407,0.9675167750650469,610.7074659869583,-65.27794550657245)" fill="none" stroke="#ffbd9b"></use><use xlink:href="#bbburst-shape-10" width="13.511391396672215" opacity="0.7717968129993474" transform="matrix(0.8087253237076998,-0.5881864932093188,0.5881864932093188,0.8087253237076998,253.7398692467709,40.24115438825976)" fill="none" stroke="#ffa6d5"></use><use xlink:href="#bbburst-shape-6" width="28.379540233961972" opacity="0.3332363116957717" transform="matrix(0.7103389400978465,0.7038597801982068,-0.7038597801982068,0.7103389400978465,651.6424397601281,-193.51116323072011)" fill="#2c2891"></use><use xlink:href="#bbburst-shape-4" width="31.610880134355263" opacity="0.32833277428675756" transform="matrix(0.99958844454163,-0.02868695764358458,0.02868695764358458,0.99958844454163,478.5731587398842,-282.46425511668633)" fill="#00a19d"></use><use xlink:href="#bbburst-shape-1" width="27.821768083383454" opacity="0.3872170580139901" transform="matrix(0.9872433192487984,0.1592188073018237,-0.1592188073018237,0.9872433192487984,566.9126824136601,252.6404201487686)" fill="#00a19d"></use><use xlink:href="#bbburst-shape-4" width="16.382994648200857" opacity="0.5658433505121401" transform="matrix(0.7993031805129525,0.6009279704106629,-0.6009279704106629,0.7993031805129525,446.3312249558128,130.31859625340252)" fill="#00a19d"></use><use xlink:href="#bbburst-shape-10" width="8.606018299749406" opacity="0.8816838692054167" transform="matrix(0.9449362119539799,-0.32725457267708746,0.32725457267708746,0.9449362119539799,301.4370112071341,62.284958375572614)" fill="none" stroke="#ffbd9b"></use><use xlink:href="#bbburst-shape-1" width="11.645126955139034" opacity="0.7773816523191672" transform="matrix(0.9988771773009183,0.04737493712238514,-0.04737493712238514,0.9988771773009183,393.93335537225107,-98.13287693282302)" fill="#00a19d"></use><use xlink:href="#bbburst-shape-6" width="32.89730491110951" opacity="0.2184542915150447" transform="matrix(0.734499572394024,0.6786091497710564,-0.6786091497710564,0.734499572394024,968.4240277306035,262.87852295960755)" fill="#ffbd9b"></use><use xlink:href="#bbburst-shape-4" width="7.475488646940796" opacity="0.8602023021821722" transform="matrix(0.8992417022648801,0.43745212413218515,-0.43745212413218515,0.8992417022648801,541.2827674042285,-16.43817944187566)" fill="#ffa6d5"></use><use xlink:href="#bbburst-shape-8" width="28.596320738103675" opacity="0.15183775124963794" transform="matrix(0.7464771009143509,0.6654111043636902,-0.6654111043636902,0.7464771009143509,350.22404815352854,-137.2037928626248)" fill="none" stroke="#00a19d"></use><use xlink:href="#bbburst-shape-8" width="16.588179829103225" opacity="0.6856388833700766" transform="matrix(0.7327864527783721,-0.6804586795864174,0.6804586795864174,0.7327864527783721,35.73671383172484,0.21138490588265313)" fill="none" stroke="#2c2891"></use><use xlink:href="#bbburst-shape-10" width="34.83012472616129" opacity="0.21269338345890731" transform="matrix(0.9973887668197682,-0.07221944213120306,0.07221944213120306,0.9973887668197682,394.7816228069265,-349.60085806697293)" fill="none" stroke="#2c2891"></use><use xlink:href="#bbburst-shape-6" width="31.049855969003215" opacity="0.24202962601207167" transform="matrix(0.8088441449905046,0.5880230855286036,-0.5880230855286036,0.8088441449905046,430.85894364784843,349.38965474147426)" fill="#ffa6d5"></use><use xlink:href="#bbburst-shape-1" width="10.911621630328229" opacity="0.7078267421806408" transform="matrix(0.9584078033464302,0.28540231688735535,-0.28540231688735535,0.9584078033464302,546.2379267259008,-110.97983835670203)" fill="#2c2891"></use><use xlink:href="#bbburst-shape-8" width="8.619561888111006" opacity="0.8707371598544519" transform="matrix(0.9234365100612644,0.38375123698285646,-0.38375123698285646,0.9234365100612644,569.4305865582903,-25.683278949455882)" fill="none" stroke="#2c2891"></use><use xlink:href="#bbburst-shape-6" width="9.705481008891619" opacity="0.8280795388693004" transform="matrix(0.9288479781874244,0.3704611091830478,-0.3704611091830478,0.9288479781874244,531.0556303514234,-49.66459101001914)" fill="#ff5c58"></use><use xlink:href="#bbburst-shape-10" width="22.307831538085985" opacity="0.43898202186259483" transform="matrix(0.998858559919997,-0.04776585888006053,0.04776585888006053,0.998858559919997,122.56690243637047,52.31558865090136)" fill="none" stroke="#ff5c58"></use><use xlink:href="#bbburst-shape-10" width="6.002671403089525" opacity="0.9648389933514937" transform="matrix(0.9980140800915039,0.06299123700253231,-0.06299123700253231,0.9980140800915039,436.2925620365995,7.801230689563511)" fill="none" stroke="#00a19d"></use><use xlink:href="#bbburst-shape-1" width="19.94123673968149" opacity="0.5550481384120446" transform="matrix(0.780880497983241,-0.6246804365989426,0.6246804365989426,0.780880497983241,162.6408670586132,293.0946927216344)" fill="#2c2891"></use><use xlink:href="#bbburst-shape-4" width="10.527026094039304" opacity="0.8218333509991177" transform="matrix(0.9755308237432131,0.21986271154265347,-0.21986271154265347,0.9755308237432131,410.4448481030259,43.1588447863503)" fill="#2c2891"></use><use xlink:href="#bbburst-shape-4" width="20.214418144128768" opacity="0.2659896977469629" transform="matrix(0.9105013773664273,0.413506036006536,-0.413506036006536,0.9105013773664273,439.71701320505485,340.7235914970918)" fill="#ffbd9b"></use><use xlink:href="#bbburst-shape-6" width="21.04899803276033" opacity="0.4471765364850264" transform="matrix(0.9935466974539184,-0.11342380692963867,0.11342380692963867,0.9935466974539184,549.115006895202,144.7928012543772)" fill="#ffa6d5"></use><use xlink:href="#bbburst-shape-4" width="31.41796770757216" opacity="0.1067687811411756" transform="matrix(0.9390864909891219,-0.34368090206140045,0.34368090206140045,0.9390864909891219,614.9302800872316,-133.82927826470157)" fill="#ffa6d5"></use><use xlink:href="#bbburst-shape-4" width="12.808669944871433" opacity="0.7959703136201466" transform="matrix(0.9901557917456906,-0.1399696684016389,0.1399696684016389,0.9901557917456906,284.4835181986752,79.6829694413114)" fill="#ffbd9b"></use><use xlink:href="#bbburst-shape-8" width="33.773903399971886" opacity="0.18607624993497918" transform="matrix(0.9688341088007065,0.2477104552180647,-0.2477104552180647,0.9688341088007065,142.38725325102072,-127.07466406675002)" fill="none" stroke="#ffa6d5"></use><use xlink:href="#bbburst-shape-1" width="31.1314438341954" opacity="0.11873068272463749" transform="matrix(0.9902253816108574,0.1394764984276274,-0.1394764984276274,0.9902253816108574,171.9815549586459,-290.17282088978175)" fill="#00a19d"></use><use xlink:href="#bbburst-shape-10" width="32.35564998213174" opacity="0.10425298403654437" transform="matrix(0.9976557775829282,0.06843207913985161,-0.06843207913985161,0.9976557775829282,128.67337834492164,287.2998218743623)" fill="none" stroke="#ffa6d5"></use><use xlink:href="#bbburst-shape-6" width="19.41009747036447" opacity="0.5973006486207342" transform="matrix(0.9980670312226007,0.06214661041846289,-0.06214661041846289,0.9980670312226007,592.7430349318784,36.328503441097325)" fill="#00a19d"></use><use xlink:href="#bbburst-shape-1" width="11.87782256729044" opacity="0.8418401028201596" transform="matrix(0.8032293182354167,-0.5956699273314608,0.5956699273314608,0.8032293182354167,85.891487377126,85.88765546884247)" fill="#ffa6d5"></use><use xlink:href="#bbburst-shape-6" width="33.049207590659634" opacity="0.34886181143873396" transform="matrix(0.8354893350578162,-0.5495066614743156,0.5495066614743156,0.8354893350578162,439.9193926209939,179.94963427650032)" fill="#ffbd9b"></use><use xlink:href="#bbburst-shape-1" width="29.033005553910243" opacity="0.40307494509401887" transform="matrix(0.9047980178124296,0.42584098788479513,-0.42584098788479513,0.9047980178124296,428.76790307441996,267.86405249495573)" fill="#ffbd9b"></use><use xlink:href="#bbburst-shape-10" width="15.223228761789224" opacity="0.6407535012853546" transform="matrix(0.9334565011654915,0.35869061938093505,-0.35869061938093505,0.9334565011654915,388.34094514636524,-41.0844792205944)" fill="none" stroke="#00a19d"></use><use xlink:href="#bbburst-shape-10" width="27.40482950670644" opacity="0.14034023195915435" transform="matrix(0.8830295153988142,-0.4693174564562193,0.4693174564562193,0.8830295153988142,315.62006463623334,-315.9998960268467)" fill="none" stroke="#ff5c58"></use><use xlink:href="#bbburst-shape-6" width="12.116142891517256" opacity="0.8204456437184366" transform="matrix(0.99050392488435,0.13748445289812927,-0.13748445289812927,0.99050392488435,502.6483516330992,63.378238578896855)" fill="#2c2891"></use><use xlink:href="#bbburst-shape-8" width="28.40823119915845" opacity="0.470181497899839" transform="matrix(0.8611299076574043,0.5083849743432141,-0.5083849743432141,0.8611299076574043,764.3122451213545,-115.52845112377102)" fill="none" stroke="#ffa6d5"></use><use xlink:href="#bbburst-shape-10" width="20.631593812343223" opacity="0.45532163040331886" transform="matrix(0.9880303247996881,0.15425977206071212,-0.15425977206071212,0.9880303247996881,256.94495250648305,152.26169697640285)" fill="none" stroke="#2c2891"></use><use xlink:href="#bbburst-shape-10" width="10.222415792559714" opacity="0.8941244404077492" transform="matrix(0.7588855957467618,-0.6512239649829253,0.6512239649829253,0.7588855957467618,105.42152673709023,136.6158944143632)" fill="none" stroke="#00a19d"></use><use xlink:href="#bbburst-shape-6" width="13.865837131074507" opacity="0.6903219180560012" transform="matrix(0.7598085567139105,-0.6501468735173033,0.6501468735173033,0.7598085567139105,260.6566762581865,160.15031905176016)" fill="#ffa6d5"></use><use xlink:href="#bbburst-shape-10" width="20.09739284479836" opacity="0.6273524339522752" transform="matrix(0.9372533882159608,0.3486489441798174,-0.3486489441798174,0.9372533882159608,697.5208809219201,13.167255594479627)" fill="none" stroke="#ffbd9b"></use><use xlink:href="#bbburst-shape-4" width="11.757246269674807" opacity="0.8483159884637589" transform="matrix(0.9785824505733401,0.20585525844601676,-0.20585525844601676,0.9785824505733401,544.0822067838601,17.543178520104675)" fill="#ff5c58"></use><use xlink:href="#bbburst-shape-4" width="9.344295705565294" opacity="0.8245501824287612" transform="matrix(0.9916370768056076,0.12905776963991514,-0.12905776963991514,0.9916370768056076,442.82577407728235,81.59318378480424)" fill="#00a19d"></use><use xlink:href="#bbburst-shape-6" width="7.167351353459513" opacity="0.9073845881063614" transform="matrix(0.9985257145795013,-0.054280726998596554,0.054280726998596554,0.9985257145795013,355.6199883873916,-36.26382046906184)" fill="#ffa6d5"></use><use xlink:href="#bbburst-shape-6" width="32.241597415798935" opacity="0.10372512021591973" transform="matrix(0.9399096599506506,0.3414232433965978,-0.3414232433965978,0.9399096599506506,692.2950261997671,383.8689243209706)" fill="#ffa6d5"></use><use xlink:href="#bbburst-shape-8" width="6.429654618455849" opacity="0.9315880802682124" transform="matrix(0.9286517805155591,-0.3709526527001551,0.3709526527001551,0.9286517805155591,223.65184781839923,11.74140296779234)" fill="none" stroke="#ffa6d5"></use><use xlink:href="#bbburst-shape-8" width="9.532291865369151" opacity="0.7711650598968773" transform="matrix(0.9771461717474892,0.21256848082259588,-0.21256848082259588,0.9771461717474892,478.5443958515961,111.08793503641061)" fill="none" stroke="#00a19d"></use><use xlink:href="#bbburst-shape-6" width="9.579801544332264" opacity="0.7856908330727472" transform="matrix(0.9882248391609966,0.15300871630473342,-0.15300871630473342,0.9882248391609966,551.7840474031667,18.66508211047443)" fill="#2c2891"></use><use xlink:href="#bbburst-shape-1" width="20.553648304143827" opacity="0.4525538190544568" transform="matrix(0.997563287612033,-0.06976737925902336,0.06976737925902336,0.997563287612033,603.4893485060484,49.63267503158812)" fill="#ff5c58"></use><use xlink:href="#bbburst-shape-10" width="28.400201328994832" opacity="0.2399077033446818" transform="matrix(0.755386894708012,-0.6552790545282114,0.6552790545282114,0.755386894708012,425.71063880387334,-59.76589467867217)" fill="none" stroke="#00a19d"></use><use xlink:href="#bbburst-shape-10" width="27.837872618671135" opacity="0.37082853118871084" transform="matrix(0.9815551312189803,-0.1911792990302304,0.1911792990302304,0.9815551312189803,169.2320962256087,-235.6907144031936)" fill="none" stroke="#2c2891"></use><use xlink:href="#bbburst-shape-10" width="16.637790681974195" opacity="0.5072046113160064" transform="matrix(0.8149104385847659,0.5795869020997494,-0.5795869020997494,0.8149104385847659,556.6573998498441,280.1604302570083)" fill="none" stroke="#2c2891"></use><use xlink:href="#bbburst-shape-6" width="10.905624186205998" opacity="0.8013088668799473" transform="matrix(0.9245965236732712,0.38094785523914193,-0.38094785523914193,0.9245965236732712,520.2842693392092,113.3043014939509)" fill="#ff5c58"></use><use xlink:href="#bbburst-shape-6" width="24.78759613912562" opacity="0.4577609332632494" transform="matrix(0.7566937841509762,-0.6537694677998321,0.6537694677998321,0.7566937841509762,-94.09725492335431,203.9971750735687)" fill="#00a19d"></use><use xlink:href="#bbburst-shape-10" width="21.968198458989978" opacity="0.5535302686533246" transform="matrix(0.9968999859287664,0.07867920980300548,-0.07867920980300548,0.9968999859287664,562.4484702343136,142.58041241174925)" fill="none" stroke="#00a19d"></use><use xlink:href="#bbburst-shape-8" width="8.380953653849817" opacity="0.8817077720702955" transform="matrix(0.9580451590380917,-0.28661729404151026,0.28661729404151026,0.9580451590380917,329.62017872584914,40.398690113324676)" fill="none" stroke="#ffa6d5"></use><use xlink:href="#bbburst-shape-10" width="18.72430057445351" opacity="0.5635785579866188" transform="matrix(0.9888990674704552,-0.1485888096596244,0.1485888096596244,0.9888990674704552,185.32827596601157,137.2062302250659)" fill="none" stroke="#ffa6d5"></use><use xlink:href="#bbburst-shape-4" width="20.773474340405528" opacity="0.6332482344186111" transform="matrix(0.9977695159739934,0.0667532245889504,-0.0667532245889504,0.9977695159739934,504.1892580708473,139.9299194644163)" fill="#ffa6d5"></use><use xlink:href="#bbburst-shape-1" width="19.110943096718177" opacity="0.5445980420991425" transform="matrix(0.9359403378036322,-0.3521586064148127,0.3521586064148127,0.9359403378036322,45.68966132802714,42.104657926416905)" fill="#ffa6d5"></use><use xlink:href="#bbburst-shape-1" width="11.485923608348457" opacity="0.723779485411091" transform="matrix(0.9844672796135271,0.1755681502162093,-0.1755681502162093,0.9844672796135271,383.5852829542547,99.51482620775437)" fill="#ffa6d5"></use><use xlink:href="#bbburst-shape-4" width="27.706991071869183" opacity="0.38972432457555317" transform="matrix(0.8930789242384647,-0.4499000278740452,0.4499000278740452,0.8930789242384647,133.87650856312382,313.5449676716046)" fill="#00a19d"></use><use xlink:href="#bbburst-shape-4" width="27.724169747817385" opacity="0.1646719870533203" transform="matrix(0.8101399786495345,0.5862364838473735,-0.5862364838473735,0.8101399786495345,688.5767229566281,438.0154098130187)" fill="#2c2891"></use><use xlink:href="#bbburst-shape-6" width="28.937398417754785" opacity="0.3150755170085393" transform="matrix(0.9338941467481566,-0.3575496086832321,0.3575496086832321,0.9338941467481566,478.48076496045087,-167.7985422971658)" fill="#2c2891"></use><use xlink:href="#bbburst-shape-10" width="20.66104330050894" opacity="0.17207567724128248" transform="matrix(0.9846799585618283,-0.17437138299238192,0.17437138299238192,0.9846799585618283,279.85738934304857,-362.4590525152296)" fill="none" stroke="#00a19d"></use><use xlink:href="#bbburst-shape-8" width="29.633209683373945" opacity="0.39235278388528694" transform="matrix(0.8621058906853711,-0.506728165040767,0.506728165040767,0.8621058906853711,-74.12392726626899,-26.02223614357456)" fill="none" stroke="#00a19d"></use><use xlink:href="#bbburst-shape-4" width="29.27661886851245" opacity="0.4095246311097893" transform="matrix(0.9203029694271819,-0.3912063962456536,0.3912063962456536,0.9203029694271819,465.76185442247777,-85.03506312428755)" fill="#ffa6d5"></use><use xlink:href="#bbburst-shape-1" width="7.504096503617202" opacity="0.8369832971889455" transform="matrix(0.720694179015572,-0.6932531286139794,0.6932531286139794,0.720694179015572,131.1653714797485,41.82738261942308)" fill="#ffa6d5"></use><use xlink:href="#bbburst-shape-10" width="15.924346337617282" opacity="0.5371176537435802" transform="matrix(0.8011098989006384,0.5985172761778969,-0.5985172761778969,0.8011098989006384,439.85433703133975,-3.1290860520953174)" fill="none" stroke="#ff5c58"></use><use xlink:href="#bbburst-shape-10" width="6.247384008784297" opacity="0.9313641474105544" transform="matrix(0.8432898781262801,-0.5374590044363976,0.5374590044363976,0.8432898781262801,156.2617115457136,80.84538908522836)" fill="none" stroke="#2c2891"></use><use xlink:href="#bbburst-shape-4" width="28.815363473422448" opacity="0.046830166006425866" transform="matrix(0.9403253700789813,-0.340276649780479,0.340276649780479,0.9403253700789813,18.786415560602563,389.84559916434273)" fill="#2c2891"></use><use xlink:href="#bbburst-shape-6" width="8.794453446046685" opacity="0.8289887367288165" transform="matrix(0.8101805169747959,0.5861804584890667,-0.5861804584890667,0.8101805169747959,698.0458121878648,110.96424814448125)" fill="#00a19d"></use><use xlink:href="#bbburst-shape-8" width="19.106085062972397" opacity="0.63301736051454" transform="matrix(0.9849472517693136,-0.1728551741547715,0.1728551741547715,0.9849472517693136,296.6855081114387,-155.6025970859596)" fill="none" stroke="#2c2891"></use><use xlink:href="#bbburst-shape-4" width="10.087715897934494" opacity="0.8866271650227645" transform="matrix(0.9958469969087269,0.09104262050199352,-0.09104262050199352,0.9958469969087269,390.80348590485374,-29.696514613493264)" fill="#ffa6d5"></use><use xlink:href="#bbburst-shape-6" width="36.87996788497507" opacity="-0.10241405468444387" transform="matrix(0.9512032713205115,-0.3085649633856011,0.3085649633856011,0.9512032713205115,617.374144533382,368.27456757874825)" fill="#2c2891"></use><use xlink:href="#bbburst-shape-4" width="6.918901159947382" opacity="0.8662867009468146" transform="matrix(0.7948621948331703,0.6067899893908889,-0.6067899893908889,0.7948621948331703,626.2954377079716,138.55923406793005)" fill="#ffa6d5"></use><use xlink:href="#bbburst-shape-4" width="12.964065313354288" opacity="0.7386019285284233" transform="matrix(0.9940373252671059,-0.10904034104778851,0.10904034104778851,0.9940373252671059,429.8971032010881,-83.17360588870861)" fill="#ffbd9b"></use><use xlink:href="#bbburst-shape-10" width="11.943894290614177" opacity="0.6925412872789976" transform="matrix(0.8597853303229759,0.5106556430329652,-0.5106556430329652,0.8597853303229759,729.8905727309191,7.830495514416327)" fill="none" stroke="#00a19d"></use><use xlink:href="#bbburst-shape-10" width="15.462472841162072" opacity="0.566104599196042" transform="matrix(0.9761545712105553,-0.21707660653496738,0.21707660653496738,0.9761545712105553,317.08820317955906,-183.6995497949652)" fill="none" stroke="#00a19d"></use><use xlink:href="#bbburst-shape-6" width="8.396212823868773" opacity="0.8909019634803043" transform="matrix(0.7232770822193899,-0.6905579355392318,0.6905579355392318,0.7232770822193899,72.06263305056552,107.20876814955056)" fill="#ffa6d5"></use><use xlink:href="#bbburst-shape-4" width="43.43446815012201" opacity="-0.09307239240339737" transform="matrix(0.9329754119253539,-0.35994010716050545,0.35994010716050545,0.9329754119253539,-120.50250923014622,-304.4732430441477)" fill="#00a19d"></use><use xlink:href="#bbburst-shape-4" width="26.182501734271145" opacity="0.40659484525833645" transform="matrix(0.9919451880198524,0.12666784897620847,-0.12666784897620847,0.9919451880198524,607.1091079339225,207.98360582991398)" fill="#2c2891"></use><use xlink:href="#bbburst-shape-10" width="12.097887717566215" opacity="0.7852280079903938" transform="matrix(0.9270359258174118,0.37497252198508385,-0.37497252198508385,0.9270359258174118,561.5406803332913,-68.19448715748007)" fill="none" stroke="#ff5c58"></use><use xlink:href="#bbburst-shape-10" width="31.627506498055624" opacity="0.2922928779729701" transform="matrix(0.9232945138192084,0.3840927501936891,-0.3840927501936891,0.9232945138192084,234.60940607753025,118.12955262495814)" fill="none" stroke="#ff5c58"></use><use xlink:href="#bbburst-shape-4" width="6.754229118755013" opacity="0.9808691220317017" transform="matrix(0.9975824989202751,-0.06949214234702715,0.06949214234702715,0.9975824989202751,374.5533721832829,-5.227165434920096)" fill="#2c2891"></use><use xlink:href="#bbburst-shape-1" width="36.03456445121623" opacity="0.17034607227002918" transform="matrix(0.7484299873379139,0.6632138071944599,-0.6632138071944599,0.7484299873379139,328.7438203345661,275.9032031576031)" fill="#00a19d"></use><use xlink:href="#bbburst-shape-10" width="8.20061488146348" opacity="0.8498496066692911" transform="matrix(0.8737889139587871,0.4863053915419028,-0.4863053915419028,0.8737889139587871,528.2752821174811,23.21978973987774)" fill="none" stroke="#ffbd9b"></use><use xlink:href="#bbburst-shape-4" width="11.758946422642392" opacity="0.8328645332907529" transform="matrix(0.8915303762095254,0.45296091254732146,-0.45296091254732146,0.8915303762095254,520.9136874887794,-10.53994811366232)" fill="#ff5c58"></use><use xlink:href="#bbburst-shape-8" width="30.888025991703284" opacity="0.2902913919506348" transform="matrix(0.9721012992944229,0.2345614288626643,-0.2345614288626643,0.9721012992944229,669.880949186762,-248.3711275782865)" fill="none" stroke="#00a19d"></use><use xlink:href="#bbburst-shape-10" width="11.671714415285258" opacity="0.8035513556349819" transform="matrix(0.8276943627269665,0.5611791531320465,-0.5611791531320465,0.8276943627269665,533.7373666515874,44.781102471677514)" fill="none" stroke="#2c2891"></use><use xlink:href="#bbburst-shape-4" width="12.166581261683797" opacity="0.6671538473103376" transform="matrix(0.9163893516660652,0.4002880914454596,-0.4002880914454596,0.9163893516660652,479.8680373634136,160.8613412489595)" fill="#ffa6d5"></use><use xlink:href="#bbburst-shape-4" width="24.882570909058153" opacity="0.5064249535215952" transform="matrix(0.9985862899136182,0.053154694962489174,-0.053154694962489174,0.9985862899136182,298.4665380569861,-192.81838088109222)" fill="#2c2891"></use><use xlink:href="#bbburst-shape-8" width="26.412643320359216" opacity="0.35759234790450445" transform="matrix(0.8692238438571203,-0.49441875901936877,0.49441875901936877,0.8692238438571203,473.3555863424823,-2.030069937920416)" fill="none" stroke="#ff5c58"></use><use xlink:href="#bbburst-shape-4" width="13.21592069729714" opacity="0.7673490988076798" transform="matrix(0.9454209294207097,0.3258516015202037,-0.3258516015202037,0.9454209294207097,619.6514140706962,62.45080078734344)" fill="#ffa6d5"></use><use xlink:href="#bbburst-shape-6" width="9.583108587060815" opacity="0.8422718616195982" transform="matrix(0.7950350800163187,-0.6065634521988987,0.6065634521988987,0.7950350800163187,100.52325357709458,132.05574095169948)" fill="#ffbd9b"></use><use xlink:href="#bbburst-shape-4" width="28.28814017269916" opacity="0.27276679999625486" transform="matrix(0.9388716258124753,0.3442674400001246,-0.3442674400001246,0.9388716258124753,279.96616828460066,237.1808941723479)" fill="#00a19d"></use><use xlink:href="#bbburst-shape-4" width="31.951055740180088" opacity="0.33767864681610205" transform="matrix(0.9507949146191981,0.30982096496891853,-0.30982096496891853,0.9507949146191981,250.0948033243596,162.8764659337395)" fill="#ffbd9b"></use><use xlink:href="#bbburst-shape-4" width="12.25804764797445" opacity="0.74375035421763" transform="matrix(0.8861492306619727,0.4633999794963244,-0.4633999794963244,0.8861492306619727,475.8913214676362,92.45155525296519)" fill="#2c2891"></use><use xlink:href="#bbburst-shape-6" width="23.2009535702639" opacity="0.5623064650436338" transform="matrix(0.9962578231723437,-0.08643118515850111,0.08643118515850111,0.9962578231723437,521.7934964425767,-100.43674390410632)" fill="#ffa6d5"></use><use xlink:href="#bbburst-shape-6" width="33.410433338421434" opacity="0.12984221135201146" transform="matrix(0.979852443398955,-0.19972278078651334,0.19972278078651334,0.979852443398955,-66.31580578662714,139.3990958120546)" fill="#2c2891"></use><use xlink:href="#bbburst-shape-8" width="17.04064575259448" opacity="0.5629305117229376" transform="matrix(0.9657394661498631,-0.2595135517089184,0.2595135517089184,0.9657394661498631,352.73643301723786,201.62570393402154)" fill="none" stroke="#00a19d"></use><use xlink:href="#bbburst-shape-6" width="27.024171695808988" opacity="0.32763078950557767" transform="matrix(0.7932492470628724,-0.6088970619359121,0.6088970619359121,0.7932492470628724,-111.45911379645088,-68.45730473620085)" fill="#ffa6d5"></use><use xlink:href="#bbburst-shape-6" width="29.27837573014222" opacity="0.45287206585183515" transform="matrix(0.7339966005437132,0.6791531420749466,-0.6791531420749466,0.7339966005437132,489.37709935151753,-80.15492376119624)" fill="#ff5c58"></use><use xlink:href="#bbburst-shape-6" width="7.328061317039851" opacity="0.8452811490469194" transform="matrix(0.9985918741364518,-0.05304968339819612,0.05304968339819612,0.9985918741364518,405.42099199347956,63.44228992248014)" fill="#00a19d"></use><use xlink:href="#bbburst-shape-6" width="6.14286662754864" opacity="0.9344536082651385" transform="matrix(0.8618304595910703,-0.5071964697442645,0.5071964697442645,0.8618304595910703,183.72059248777484,84.29135127908847)" fill="#ffa6d5"></use><use xlink:href="#bbburst-shape-4" width="22.477739124922714" opacity="0.4964576096993072" transform="matrix(0.9608856217700087,0.2769455214941446,-0.2769455214941446,0.9608856217700087,567.7802002139246,-203.65798781656574)" fill="#00a19d"></use><use xlink:href="#bbburst-shape-1" width="24.40847508486634" opacity="0.47871069887103945" transform="matrix(0.9116999276299973,0.41085671706746835,-0.41085671706746835,0.9116999276299973,355.3556593911478,-95.69814152027658)" fill="#2c2891"></use><use xlink:href="#bbburst-shape-10" width="24.951107348583204" opacity="0.004678417128716084" transform="matrix(0.821842748318535,0.5697143995338693,-0.5697143995338693,0.821842748318535,359.3626978256617,-301.7765878784698)" fill="none" stroke="#00a19d"></use><use xlink:href="#bbburst-shape-1" width="15.776834575336336" opacity="0.6093099402868987" transform="matrix(0.9993635409605034,-0.035672300162510405,0.035672300162510405,0.9993635409605034,545.9250454957795,-51.014861893351735)" fill="#00a19d"></use><use xlink:href="#bbburst-shape-6" width="21.861592829971343" opacity="0.04817884802294292" transform="matrix(0.9737611138904978,-0.22757261055482272,0.22757261055482272,0.9737611138904978,665.8337272217677,232.97523886711667)" fill="#00a19d"></use><use xlink:href="#bbburst-shape-4" width="29.15609699937967" opacity="0.16513293327033796" transform="matrix(0.7096602354872023,-0.7045440725520644,0.7045440725520644,0.7096602354872023,470.0199750164269,226.32568465905211)" fill="#ffbd9b"></use><use xlink:href="#bbburst-shape-4" width="11.709898864830356" opacity="0.8119882192342229" transform="matrix(0.9984448737742622,-0.05574795093900559,0.05574795093900559,0.9984448737742622,455.7234406241123,-10.186973036233667)" fill="#ffa6d5"></use><use xlink:href="#bbburst-shape-1" width="12.257990251066454" opacity="0.693251156513478" transform="matrix(0.7242536770906226,0.6895336186298041,-0.6895336186298041,0.7242536770906226,534.0414094122865,92.0544446371797)" fill="#ffa6d5"></use><use xlink:href="#bbburst-shape-10" width="7.969910173663941" opacity="0.9043544239581617" transform="matrix(0.9323725114961308,0.3614989623863359,-0.3614989623863359,0.9323725114961308,564.1234916093933,-10.616860199479902)" fill="none" stroke="#00a19d"></use><use xlink:href="#bbburst-shape-6" width="34.40278984577955" opacity="0.1334084994389274" transform="matrix(0.9996324964153501,0.027108524681637887,-0.027108524681637887,0.9996324964153501,668.3417401773362,-277.1169454437413)" fill="#2c2891"></use><use xlink:href="#bbburst-shape-10" width="26.460120867808143" opacity="0.2981185875962735" transform="matrix(0.9334066314896587,-0.3588203732943941,0.3588203732943941,0.9334066314896587,-67.84115898562597,-17.987145653421408)" fill="none" stroke="#ff5c58"></use><use xlink:href="#bbburst-shape-1" width="31.04435264887288" opacity="0.013251972243185417" transform="matrix(0.7669571657388791,0.64169829820702,-0.64169829820702,0.7669571657388791,280.1586213211928,336.7483336696199)" fill="#ff5c58"></use><use xlink:href="#bbburst-shape-1" width="6.9929735758651255" opacity="0.8764419863255385" transform="matrix(0.9303270964001321,-0.3667308191353697,0.3667308191353697,0.9303270964001321,243.6385902262069,-26.069469750769542)" fill="#ffa6d5"></use><use xlink:href="#bbburst-shape-4" width="29.16232540234926" opacity="0.18046192973102038" transform="matrix(0.9972559120774321,0.07403138406519821,-0.07403138406519821,0.9972559120774321,585.2209894500386,-327.14968942645186)" fill="#ffa6d5"></use><use xlink:href="#bbburst-shape-6" width="13.221894146642295" opacity="0.6601610557872437" transform="matrix(0.9604107322621704,-0.2785879131542529,0.2785879131542529,0.9604107322621704,296.28909802359965,-134.60101060975694)" fill="#ffa6d5"></use><use xlink:href="#bbburst-shape-4" width="21.281662423353072" opacity="0.4772727346584783" transform="matrix(0.816925901868371,0.5767426383202031,-0.5767426383202031,0.816925901868371,609.310249392722,-167.77672483904917)" fill="#00a19d"></use><use xlink:href="#bbburst-shape-10" width="15.77430576576118" opacity="0.5210602515281504" transform="matrix(0.7406115006812518,0.6719334826146589,-0.6719334826146589,0.7406115006812518,450.89786738805344,59.834452897310314)" fill="none" stroke="#ffa6d5"></use><use xlink:href="#bbburst-shape-6" width="6.760235816823853" opacity="0.8576081598070374" transform="matrix(0.8233180738082941,0.567580258061008,-0.567580258061008,0.8233180738082941,633.7918025873234,132.11610089494133)" fill="#ffbd9b"></use><use xlink:href="#bbburst-shape-6" width="25.907012893880633" opacity="0.21319585321705092" transform="matrix(0.7907238452147518,-0.6121730152569592,0.6121730152569592,0.7907238452147518,-38.35775224823402,-211.31278554128824)" fill="#2c2891"></use><use xlink:href="#bbburst-shape-8" width="17.854558454449485" opacity="0.6052803273685508" transform="matrix(0.8108458137563653,-0.5852598280368965,0.5852598280368965,0.8108458137563653,310.70985067892536,172.70307351312135)" fill="none" stroke="#ffa6d5"></use><use xlink:href="#bbburst-shape-4" width="27.62849393238475" opacity="0.3297464868732791" transform="matrix(0.931422506568916,-0.36393971239324474,0.36393971239324474,0.931422506568916,214.86283941527108,332.91158732053157)" fill="#ffa6d5"></use><use xlink:href="#bbburst-shape-4" width="29.910981183967724" opacity="0.3144020916894362" transform="matrix(0.77639219176714,0.6302500809702578,-0.6302500809702578,0.77639219176714,682.4633182500111,385.6864954557245)" fill="#2c2891"></use><use xlink:href="#bbburst-shape-10" width="12.524800171468645" opacity="0.8063311746518217" transform="matrix(0.9810902148256715,0.1935510019951271,-0.1935510019951271,0.9810902148256715,430.3518667524682,-70.59280093238601)" fill="none" stroke="#ffa6d5"></use><use xlink:href="#bbburst-shape-6" width="8.115904653938843" opacity="0.9295026767185037" transform="matrix(0.9778323468591149,0.2093893536835042,-0.2093893536835042,0.9778323468591149,448.06639790078174,8.413525130106393)" fill="#2c2891"></use><use xlink:href="#bbburst-shape-10" width="11.440220788545105" opacity="0.8569591803438946" transform="matrix(0.7086530161388988,-0.7055571576543191,0.7055571576543191,0.7086530161388988,157.9618346639905,73.81717468907812)" fill="none" stroke="#ffbd9b"></use><use xlink:href="#bbburst-shape-8" width="12.083953513973118" opacity="0.6940178805214567" transform="matrix(0.9177944517060154,0.3970558454646583,-0.3970558454646583,0.9177944517060154,602.8215856959126,158.95271799310143)" fill="none" stroke="#ffa6d5"></use><use xlink:href="#bbburst-shape-10" width="12.138018297956558" opacity="0.7564490533497995" transform="matrix(0.8137414215000588,-0.5812270631474963,0.5812270631474963,0.8137414215000588,212.41372146864944,-19.577321390049235)" fill="none" stroke="#ffbd9b"></use><use xlink:href="#bbburst-shape-8" width="25.70691637577334" opacity="0.5319630630791767" transform="matrix(0.857663707466788,0.5142110120313682,-0.5142110120313682,0.857663707466788,476.3145164338742,224.5479698770405)" fill="none" stroke="#ff5c58"></use><use xlink:href="#bbburst-shape-10" width="19.134474520382625" opacity="0.5955339176830234" transform="matrix(0.9936967940029968,-0.11210121135904674,0.11210121135904674,0.9936967940029968,275.2896128314574,171.45264097589285)" fill="none" stroke="#00a19d"></use><use xlink:href="#bbburst-shape-1" width="14.665654778798249" opacity="0.7185644512401439" transform="matrix(0.9040293327896397,-0.42747042641090255,0.42747042641090255,0.9040293327896397,97.8077471624957,64.30539186008787)" fill="#2c2891"></use><use xlink:href="#bbburst-shape-4" width="18.46030283057141" opacity="0.5871833134834706" transform="matrix(0.9112820663629889,-0.4117827042569917,0.4117827042569917,0.9112820663629889,110.22086625420121,-105.26375904602105)" fill="#00a19d"></use><use xlink:href="#bbburst-shape-6" width="9.573619676547615" opacity="0.780399356370139" transform="matrix(0.7699109278185092,-0.6381513638829288,0.6381513638829288,0.7699109278185092,184.52481985098655,183.83582381106976)" fill="#00a19d"></use><use xlink:href="#bbburst-shape-6" width="30.88368874597468" opacity="0.03531379602973439" transform="matrix(0.9561123876944533,0.29300017422727137,-0.29300017422727137,0.9561123876944533,742.2931862617734,-348.79623817835443)" fill="#2c2891"></use><use xlink:href="#bbburst-shape-6" width="10.705337813279392" opacity="0.8496999889406809" transform="matrix(0.7730368749641064,0.6343610879820172,-0.6343610879820172,0.7730368749641064,712.4545869231636,62.39746496406525)" fill="#00a19d"></use><use xlink:href="#bbburst-shape-8" width="11.18507643955221" opacity="0.7421502486812148" transform="matrix(0.7618289470280339,0.6477782455981036,-0.6477782455981036,0.7618289470280339,604.3943947194118,196.13336194743988)" fill="none" stroke="#ffa6d5"></use><use xlink:href="#bbburst-shape-1" width="23.344380434255985" opacity="0.489417837940761" transform="matrix(0.9829620362018898,-0.1838086923565764,0.1838086923565764,0.9829620362018898,544.6524365886154,1.6191407445096502)" fill="#00a19d"></use><use xlink:href="#bbburst-shape-1" width="13.363976123885317" opacity="0.6177173755270626" transform="matrix(0.9790275058743484,0.20372810984607073,-0.20372810984607073,0.9790275058743484,305.044324177722,-19.914870802533926)" fill="#2c2891"></use><use xlink:href="#bbburst-shape-10" width="12.116670167106617" opacity="0.7857596339224054" transform="matrix(0.8882755877711442,-0.4593108753010625,0.4593108753010625,0.8882755877711442,128.12430439736883,-1.9611638073357653)" fill="none" stroke="#00a19d"></use><use xlink:href="#bbburst-shape-8" width="5.875128913877089" opacity="0.9727818202454293" transform="matrix(0.9944692239275534,-0.10502838978547463,0.10502838978547463,0.9944692239275534,350.9204125339881,14.045638962386818)" fill="none" stroke="#00a19d"></use><use xlink:href="#bbburst-shape-10" width="8.264966963097342" opacity="0.924859962224592" transform="matrix(0.9798683839578199,-0.1996445594547728,0.1996445594547728,0.9798683839578199,345.9213190148567,24.80201791272475)" fill="none" stroke="#2c2891"></use><use xlink:href="#bbburst-shape-4" width="30.51049363665779" opacity="0.1846012348625039" transform="matrix(0.9504839887477319,-0.310773530298514,0.310773530298514,0.9504839887477319,228.87311683418898,390.0763860877323)" fill="#ffa6d5"></use><use xlink:href="#bbburst-shape-1" width="12.456423355679316" opacity="0.6762113655455568" transform="matrix(0.9861755357991139,-0.16570399087327545,0.16570399087327545,0.9861755357991139,210.3205626557651,93.06685424146679)" fill="#00a19d"></use><use xlink:href="#bbburst-shape-10" width="17.04556434302323" opacity="0.6425869594831579" transform="matrix(0.9368014985485074,0.3498613329838993,-0.3498613329838993,0.9368014985485074,372.1191042593384,40.15666668293363)" fill="none" stroke="#ffbd9b"></use><use xlink:href="#bbburst-shape-4" width="30.442220522123286" opacity="0.183567224498127" transform="matrix(0.8916212099279619,0.4527820866670823,-0.4527820866670823,0.8916212099279619,201.43837802928195,67.4147235417492)" fill="#ff5c58"></use><use xlink:href="#bbburst-shape-4" width="25.52445193818225" opacity="0.39284790834084893" transform="matrix(0.9958808352607512,-0.09067172635584071,0.09067172635584071,0.9958808352607512,391.85183891836004,-267.32272343445226)" fill="#ffa6d5"></use><use xlink:href="#bbburst-shape-6" width="6.368193293038845" opacity="0.9517101556894573" transform="matrix(0.9570163572610214,0.29003394962460016,-0.29003394962460016,0.9570163572610214,508.51358253444835,-4.999316193051925)" fill="#ffbd9b"></use><use xlink:href="#bbburst-shape-6" width="17.595699929548562" opacity="0.6746954096273214" transform="matrix(0.9498408149155128,0.3127337946571086,-0.3127337946571086,0.9498408149155128,623.9844775802129,116.94746076533477)" fill="#00a19d"></use><use xlink:href="#bbburst-shape-6" width="17.79364152891908" opacity="0.5734115097504837" transform="matrix(0.993196071403591,0.11645412722816215,-0.11645412722816215,0.993196071403591,270.22722408898187,95.4309737662673)" fill="#ffa6d5"></use><use xlink:href="#bbburst-shape-6" width="24.62022045037581" opacity="0.11286612326952183" transform="matrix(0.9999426765337391,0.010707177337747694,-0.010707177337747694,0.9999426765337391,241.23852696310712,-369.76763278381674)" fill="#2c2891"></use><use xlink:href="#bbburst-shape-10" width="20.157784579583872" opacity="0.6713646485452835" transform="matrix(0.9601265929798283,0.2795656013406282,-0.2795656013406282,0.9601265929798283,578.4332535872092,-113.5608474664204)" fill="none" stroke="#ffbd9b"></use><use xlink:href="#bbburst-shape-1" width="19.159487138132192" opacity="0.5146766044177904" transform="matrix(0.9813996039832997,-0.19197608523308946,0.19197608523308946,0.9813996039832997,424.41416290156417,197.62218945667735)" fill="#00a19d"></use><use xlink:href="#bbburst-shape-4" width="9.731320956837841" opacity="0.7895578758203551" transform="matrix(0.9926578933773198,-0.12095580480366185,0.12095580480366185,0.9926578933773198,254.42236938893012,24.422796987809818)" fill="#2c2891"></use><use xlink:href="#bbburst-shape-6" width="27.35987728036981" opacity="0.13052893619256456" transform="matrix(0.992435560756268,-0.122766680114727,0.122766680114727,0.992435560756268,206.57843074763085,373.478331478377)" fill="#ffbd9b"></use><use xlink:href="#bbburst-shape-6" width="12.961170812879534" opacity="0.8024263552005696" transform="matrix(0.7457508296439483,0.6662249620701425,-0.6662249620701425,0.7457508296439483,731.328736088398,42.15088687988856)" fill="#00a19d"></use><use xlink:href="#bbburst-shape-4" width="19.513626516058608" opacity="0.5939306674944644" transform="matrix(0.9489921507665062,0.3152996951846936,-0.3152996951846936,0.9489921507665062,372.1456436975167,-94.23530756897509)" fill="#ff5c58"></use><use xlink:href="#bbburst-shape-6" width="12.508115673225436" opacity="0.7322416741286153" transform="matrix(0.9722684163260267,0.233867754542776,-0.233867754542776,0.9722684163260267,489.0130150362064,-110.85116139441504)" fill="#00a19d"></use><use xlink:href="#bbburst-shape-10" width="7.1250485671175365" opacity="0.892337965777929" transform="matrix(0.9962444384402326,0.08658532714557146,-0.08658532714557146,0.9962444384402326,479.49022539532064,-0.8392923230907172)" fill="none" stroke="#00a19d"></use><use xlink:href="#bbburst-shape-1" width="20.184923482083263" opacity="0.5495735575548227" transform="matrix(0.7189560460745397,-0.6950555400922033,0.6950555400922033,0.7189560460745397,58.761436644461696,-75.35759569153345)" fill="#ffbd9b"></use><use xlink:href="#bbburst-shape-8" width="8.017810336316142" opacity="0.8963692324047839" transform="matrix(0.9114752394627292,0.41135494143909396,-0.41135494143909396,0.9114752394627292,600.9070341964502,9.819452446936054)" fill="none" stroke="#ff5c58"></use><use xlink:href="#bbburst-shape-10" width="27.175510746976588" opacity="0.40732742706656255" transform="matrix(0.9911374564081602,0.13284028946356005,-0.13284028946356005,0.9911374564081602,264.4255995049335,202.78762566126244)" fill="none" stroke="#ff5c58"></use><use xlink:href="#bbburst-shape-8" width="23.9782743362919" opacity="0.5617664719475683" transform="matrix(0.7985996693839904,0.6018625823722399,-0.6018625823722399,0.7985996693839904,738.9481972019996,-91.80354523889307)" fill="none" stroke="#2c2891"></use><use xlink:href="#bbburst-shape-1" width="22.581428998082593" opacity="0.04406662028312891" transform="matrix(0.9331107745249224,0.35958904664283,-0.35958904664283,0.9331107745249224,162.4445093465552,-195.26826526937944)" fill="#ffa6d5"></use><use xlink:href="#bbburst-shape-8" width="10.031904002767211" opacity="0.7660067564731479" transform="matrix(0.8341654267601638,-0.5515143160408748,0.5515143160408748,0.8341654267601638,69.94117056839562,66.67247421541498)" fill="none" stroke="#00a19d"></use><use xlink:href="#bbburst-shape-8" width="31.38241571559296" opacity="0.22661978750925738" transform="matrix(0.7921365649369349,0.6103438887134968,-0.6103438887134968,0.7921365649369349,834.9812403002355,356.0549131215027)" fill="none" stroke="#ffa6d5"></use><use xlink:href="#bbburst-shape-8" width="25.312940462688537" opacity="0.43570967641699765" transform="matrix(0.8338177723693421,-0.5520397834223798,0.5520397834223798,0.8338177723693421,301.8318995560727,-142.7305794131697)" fill="none" stroke="#2c2891"></use><use xlink:href="#bbburst-shape-4" width="13.481326942369591" opacity="0.6623299894212193" transform="matrix(0.9624051660778394,0.27161792338998225,-0.27161792338998225,0.9624051660778394,361.3237368585126,70.27470445448927)" fill="#00a19d"></use><use xlink:href="#bbburst-shape-1" width="13.432056542814927" opacity="0.7386501422135022" transform="matrix(0.9287386927993146,0.3707350003674057,-0.3707350003674057,0.9287386927993146,489.5810703641037,-79.22374949943179)" fill="#ffa6d5"></use><use xlink:href="#bbburst-shape-4" width="38.74643254309548" opacity="0.021921460738851595" transform="matrix(0.8782268145973512,-0.47824435398882614,0.47824435398882614,0.8782268145973512,549.5245084369321,-198.28413527239036)" fill="#00a19d"></use><use xlink:href="#bbburst-shape-4" width="13.235044335363444" opacity="0.707229700907738" transform="matrix(0.7498043629758796,-0.6616595931914956,0.6616595931914956,0.7498043629758796,99.53816823563608,-23.61938122127276)" fill="#ffa6d5"></use><use xlink:href="#bbburst-shape-1" width="19.11017611998424" opacity="0.6372000486966434" transform="matrix(0.8270817394966331,-0.5620816632760968,0.5620816632760968,0.8270817394966331,98.65357701772774,-73.57823810958072)" fill="#00a19d"></use><use xlink:href="#bbburst-shape-6" width="23.05628841906789" opacity="0.41960917269583264" transform="matrix(0.9998139356518092,0.019289740185908358,-0.019289740185908358,0.9998139356518092,322.60482953984473,-250.74313080526798)" fill="#2c2891"></use><use xlink:href="#bbburst-shape-6" width="28.514670877134236" opacity="0.19236278357638603" transform="matrix(0.8782764550512768,0.47815318518500166,-0.47815318518500166,0.8782764550512768,932.9092188847961,-39.67437041391224)" fill="#2c2891"></use><use xlink:href="#bbburst-shape-1" width="19.279399990813047" opacity="0.46693866915810334" transform="matrix(0.9854569856713836,0.16992506993222162,-0.16992506993222162,0.9854569856713836,445.51533573078444,243.73139252017012)" fill="#00a19d"></use><use xlink:href="#bbburst-shape-6" width="18.53069836164798" opacity="0.5176962098064786" transform="matrix(0.9401823985370138,0.3406714802873697,-0.3406714802873697,0.9401823985370138,727.7223396349798,104.66912305036385)" fill="#ff5c58"></use><use xlink:href="#bbburst-shape-6" width="11.678920127467691" opacity="0.7382051258136493" transform="matrix(0.9334076970758844,0.3588176013512909,-0.3588176013512909,0.9334076970758844,514.5259674452242,139.97149518990415)" fill="#2c2891"></use><use xlink:href="#bbburst-shape-6" width="12.699487161370758" opacity="0.692983649409936" transform="matrix(0.72254810553647,-0.6913206457105547,0.6913206457105547,0.72254810553647,11.916687841182636,27.932110023358803)" fill="#ffa6d5"></use><use xlink:href="#bbburst-shape-6" width="7.474474347153771" opacity="0.915290675925016" transform="matrix(0.9995817396309664,0.028919643779459877,-0.028919643779459877,0.9995817396309664,410.6546327494296,-37.95524500016188)" fill="#2c2891"></use><use xlink:href="#bbburst-shape-1" width="23.16491856037312" opacity="0.43748467191779283" transform="matrix(0.9565683752405617,-0.29150805047139255,0.29150805047139255,0.9565683752405617,19.697749481302097,4.818535022471281)" fill="#ffbd9b"></use><use xlink:href="#bbburst-shape-4" width="12.235475170807947" opacity="0.7336163421684552" transform="matrix(0.7419858439762717,0.6704155482525892,-0.6704155482525892,0.7419858439762717,782.9614090587861,87.84510386499454)" fill="#2c2891"></use><use xlink:href="#bbburst-shape-10" width="19.775150843100924" opacity="0.4458421118804773" transform="matrix(0.9874956029061671,0.15764654845884016,-0.15764654845884016,0.9874956029061671,504.1532309499174,247.57275374142057)" fill="none" stroke="#2c2891"></use><use xlink:href="#bbburst-shape-1" width="24.329805930749245" opacity="0.18471832824104684" transform="matrix(0.7251133882820755,0.6886294897360176,-0.6886294897360176,0.7251133882820755,1033.4841734616625,102.76168029775755)" fill="#00a19d"></use><use xlink:href="#bbburst-shape-10" width="31.392755073548855" opacity="0.26250888689471186" transform="matrix(0.9427313713963069,0.33355293640626,-0.33355293640626,0.9427313713963069,423.78292510835246,-300.358917690652)" fill="none" stroke="#ffa6d5"></use><use xlink:href="#bbburst-shape-10" width="27.65557872063973" opacity="0.2535872344320188" transform="matrix(0.7790657909370585,-0.6269421770718696,0.6269421770718696,0.7790657909370585,258.5224368129441,410.7337311520818)" fill="none" stroke="#2c2891"></use><use xlink:href="#bbburst-shape-6" width="22.55804530969017" opacity="0.324097291517502" transform="matrix(0.9166984863317256,-0.39957963556357967,0.39957963556357967,0.9166984863317256,533.036190863319,61.833447528075965)" fill="#ffa6d5"></use><use xlink:href="#bbburst-shape-6" width="6.604048797172335" opacity="0.9354398665056025" transform="matrix(0.8499237108972029,0.526905765440774,-0.526905765440774,0.8499237108972029,636.464507634625,52.69831914075013)" fill="#ffa6d5"></use><use xlink:href="#bbburst-shape-6" width="34.86733082371983" opacity="0.011534650888142095" transform="matrix(0.8000387180317914,0.5999483724872064,-0.5999483724872064,0.8000387180317914,891.1364521299577,426.7016339801987)" fill="#2c2891"></use><use xlink:href="#bbburst-shape-6" width="6.557749921396315" opacity="0.938112733008235" transform="matrix(0.999349887431695,0.03605277368329072,-0.03605277368329072,0.999349887431695,422.3554341228329,25.634922148419093)" fill="#ffa6d5"></use><use xlink:href="#bbburst-shape-8" width="15.07314309027839" opacity="0.644033699421457" transform="matrix(0.7743113081478977,0.6328048657163529,-0.6328048657163529,0.7743113081478977,674.4817858498179,243.3656861349852)" fill="none" stroke="#ffbd9b"></use><use xlink:href="#bbburst-shape-8" width="32.307234804341746" opacity="-0.10114889194903998" transform="matrix(0.9015602600431194,0.43265355367890235,-0.43265355367890235,0.9015602600431194,905.27446352519,-321.5666113510567)" fill="none" stroke="#00a19d"></use><use xlink:href="#bbburst-shape-10" width="19.45678522345912" opacity="0.622711334879948" transform="matrix(0.9355195421520163,0.3532749442738358,-0.3532749442738358,0.9355195421520163,653.3760696336196,-96.57201022858709)" fill="none" stroke="#ffa6d5"></use><use xlink:href="#bbburst-shape-4" width="15.882183566734048" opacity="0.6084697345394956" transform="matrix(0.9981696395259718,-0.060476199687078354,0.060476199687078354,0.9981696395259718,423.2086567862529,-166.0502183721229)" fill="#ffa6d5"></use><use xlink:href="#bbburst-shape-4" width="15.965110275495269" opacity="0.7021133834904121" transform="matrix(0.8178178218239304,0.5754772022479796,-0.5754772022479796,0.8178178218239304,755.7376748392741,91.16225632569552)" fill="#ffa6d5"></use><use xlink:href="#bbburst-shape-10" width="26.747778558653103" opacity="0.3014084700434342" transform="matrix(0.9905318981198769,-0.13728276951982674,0.13728276951982674,0.9905318981198769,113.6084629661385,-220.65368879590267)" fill="none" stroke="#ff5c58"></use><use xlink:href="#bbburst-shape-1" width="10.534710934323128" opacity="0.7611099967694976" transform="matrix(0.8439570299636414,-0.5364107862216692,0.5364107862216692,0.8439570299636414,262.8835654279193,134.9035091425119)" fill="#2c2891"></use><use xlink:href="#bbburst-shape-8" width="10.180574852255754" opacity="0.8812396348306892" transform="matrix(0.8569088190817146,-0.515468016253173,0.515468016253173,0.8569088190817146,139.81959527038262,79.67953790221225)" fill="none" stroke="#2c2891"></use><use xlink:href="#bbburst-shape-6" width="31.394746474439472" opacity="0.1599509919927833" transform="matrix(0.8768518567055119,-0.4807606695561694,0.4807606695561694,0.8768518567055119,-178.6470967683251,-7.113696017641985)" fill="#ffbd9b"></use><use xlink:href="#bbburst-shape-4" width="11.167742560244633" opacity="0.8152267777773602" transform="matrix(0.880294839144736,0.4744270188081021,-0.4744270188081021,0.880294839144736,626.6994731835538,-26.606948159912406)" fill="#ffbd9b"></use><use xlink:href="#bbburst-shape-8" width="11.093380918461275" opacity="0.7336262509769019" transform="matrix(0.8202123792363809,-0.5720591341350956,0.5720591341350956,0.8202123792363809,51.27519812370002,42.49404553512602)" fill="none" stroke="#ffbd9b"></use><use xlink:href="#bbburst-shape-10" width="11.76453367766834" opacity="0.7187902760677835" transform="matrix(0.958114144750455,0.2863866016927192,-0.2863866016927192,0.958114144750455,396.78185659910025,-43.57149499435093)" fill="none" stroke="#2c2891"></use><use xlink:href="#bbburst-shape-10" width="30.504956811664595" opacity="0.11307991166368248" transform="matrix(0.9983125171547093,-0.058069941383028886,0.058069941383028886,0.9983125171547093,657.1769323778636,269.691149301876)" fill="none" stroke="#2c2891"></use><use xlink:href="#bbburst-shape-1" width="11.658170426220861" opacity="0.726450922152724" transform="matrix(0.8567113902868746,-0.5157960776825765,0.5157960776825765,0.8567113902868746,206.05280418579238,182.20214416770654)" fill="#ffa6d5"></use><use xlink:href="#bbburst-shape-4" width="5.952402295409424" opacity="0.9043756558599849" transform="matrix(0.8221959084670916,-0.5692046100480688,0.5692046100480688,0.8221959084670916,165.7986967930319,115.6576725560858)" fill="#ffbd9b"></use><use xlink:href="#bbburst-shape-4" width="17.140057086498693" opacity="0.5881001156073756" transform="matrix(0.7312026175213324,0.682160341950448,-0.682160341950448,0.7312026175213324,643.451461862767,285.58956872783676)" fill="#ffbd9b"></use><use xlink:href="#bbburst-shape-6" width="30.570047739594035" opacity="0.3022194443765619" transform="matrix(0.9324226235573534,-0.36136968754783805,0.36136968754783805,0.9324226235573534,480.84273007644356,235.45434945347085)" fill="#ffa6d5"></use><use xlink:href="#bbburst-shape-6" width="7.45037034229074" opacity="0.8487582084966491" transform="matrix(0.9852653483326629,0.17103272603486266,-0.17103272603486266,0.9852653483326629,431.59929724752146,64.70014642233389)" fill="#2c2891"></use><use xlink:href="#bbburst-shape-1" width="9.695175251537767" opacity="0.7947411209683897" transform="matrix(0.9411806991989697,0.3379036718583247,-0.3379036718583247,0.9411806991989697,550.8562545202303,112.0182787807039)" fill="#ffa6d5"></use><use xlink:href="#bbburst-shape-10" width="12.26557476378759" opacity="0.6757214700354386" transform="matrix(0.994894944089891,0.10091605533497994,-0.10091605533497994,0.994894944089891,426.11799968745873,147.1208666459367)" fill="none" stroke="#00a19d"></use><use xlink:href="#bbburst-shape-8" width="12.106464996823572" opacity="0.6695616591575602" transform="matrix(0.993452028308659,-0.1142500216604421,0.1142500216604421,0.993452028308659,306.1036955035664,145.89930058666653)" fill="none" stroke="#2c2891"></use><use xlink:href="#bbburst-shape-4" width="26.54963874489934" opacity="0.5028518066174713" transform="matrix(0.9949931938189046,-0.09994270485661189,0.09994270485661189,0.9949931938189046,561.4117490938605,-59.87806298498106)" fill="#ffbd9b"></use><use xlink:href="#bbburst-shape-10" width="7.524384666312811" opacity="0.9706331799870239" transform="matrix(0.7303174487423154,-0.6831079153856405,0.6831079153856405,0.7303174487423154,111.16824429789506,107.32105587845433)" fill="none" stroke="#00a19d"></use></svg>