<svg xmlns="http://www.w3.org/2000/svg" version="1.1" xmlns:xlink="http://www.w3.org/1999/xlink" xmlns:svgjs="http://svgjs.dev/svgjs" viewBox="0 0 800 800"><defs><linearGradient x1="50%" y1="0%" x2="50%" y2="100%" id="ccchaos-grad"><stop stop-color="hsl(206, 75%, 49%)" stop-opacity="1" offset="0%"></stop><stop stop-color="hsl(331, 90%, 56%)" stop-opacity="1" offset="100%"></stop></linearGradient></defs><g stroke-width="2" stroke="url(#ccchaos-grad)" fill="none" stroke-linecap="round"><path d="M390.03 57.13Q403.01 62.27 416.42 67.81 430.06 73.74 443.77 80.06 457.34 86.74 470.58 93.74 483.29 101.01 495.31 108.49 506.46 116.12 516.65 123.82 525.77 131.51 533.78 139.1 540.68 146.53 546.53 153.72 555.11 166.86 561.75 178.72 572.65 193.75 583.26 202.12 598.07 206.76 616.93 210.93 628.79 212.98 641.95 215.17 656.26 217.58 671.55 220.31 686.21 230.33 700.83 240.36 713.15 250.38 721.24 260.4 723.86 270.42 720.58 280.44 711.93 290.46 699.25 300.48 684.5 310.5 669.99 320.52 657.96 330.54 650.3 340.56 648.18 350.58 651.95 360.6 661.01 370.63 673.95 380.65 688.77 390.67 703.15 400.69 714.87 410.71 722.1 420.73 723.71 430.75 719.46 440.77 710 450.79 696.81 460.81 681.94 470.83 667.7 480.86 656.3 490.88 649.52 500.9 648.41 510.92 653.15 520.94 662.99 530.96 676.41 540.98 674.92 549.83 673.31 559.36 671.32 569.44 668.67 579.92 665.13 590.65 660.52 601.45 654.69 612.15 647.56 622.59 639.08 632.58 629.28 641.99 618.22 650.66 606.03 658.49 592.87 665.37 578.94 671.26 564.45 676.1 549.64 679.9 534.76 682.69 520.03 684.54 505.7 685.53 491.95 685.78 478.96 685.43 466.87 684.66 455.76 683.64 445.7 682.55 429.17 681.21 415.44 681.36 405.09 685.55 395.79 692.85 382.75 688.53 370.22 685.31 358.32 683.12 347.13 681.87 336.72 681.43 327.11 681.64 310.57 683.37 296.03 685.42 283.79 686.13 272.12 685.02 260.1 679.64 247.16 671.25 239.94 665.24 232.2 658.23 223.94 650.29 215.15 641.52 205.87 632.03 196.15 621.97 186.06 611.49 175.67 600.76 165.08 589.95 154.38 579.24 143.66 568.79 133.01 558.77 122.5 549.32 112.19 540.56 109.67 530.54 107.81 520.53 106.92 510.51 107.13 500.5 108.41 490.48 110.55 480.46 113.23 470.45 116.03 460.43 118.51 450.42 120.29 440.4 121.09 430.39 120.79 420.37 119.43 410.35 117.22 400.34 114.52 390.32 111.73 380.31 109.29 370.29 107.59 360.28 106.88 350.26 107.28 340.24 108.72 330.23 110.98 320.21 113.71 310.2 116.49 300.18 118.88 290.17 120.5 280.15 121.12 270.14 120.63 260.12 119.11 250.11 116.79 240.09 116.37 223.68 126.13 214.83 141.49 210.57 157.61 206.46 166.3 204.24 175.43 201.79 185.02 199.03 195.1 195.9 205.64 192.33 216.6 188.29 227.92 183.76 239.51 178.72 251.28 173.19 263.1 167.18 274.86 160.75 286.43 153.93 297.66 146.78 308.46 139.38 318.7 131.81 328.3 124.13 337.2 116.43 345.36 108.8 352.78 101.3 359.48 94 370.79 80.42 380.79 67.9 387.71 59.72 390.03 57.13" stroke-dasharray="7 6" transform="rotate(0, 400, 400)" opacity="0.67"></path><path d="M400.66 69.35Q413.61 74.29 426.55 79.61 439.3 85.32 451.72 91.39 463.62 97.81 474.87 104.54 485.34 111.54 494.94 118.76 503.58 126.14 511.24 133.61 517.92 141.09 523.66 148.52 532.35 162.79 539.25 176.26 545 187.85 551.31 198.1 560.64 205.99 572.84 212.55 580.92 215.16 590.26 217.46 600.84 219.54 612.64 221.46 625.56 223.32 639.47 225.21 654.2 227.2 669.53 229.4 683.66 239.1 696.54 248.79 706.32 258.48 711.6 268.17 711.6 277.87 706.34 287.56 696.57 297.25 683.69 306.94 669.56 316.64 656.21 326.33 645.57 336.02 639.16 345.71 637.91 355.41 641.99 365.1 650.83 374.79 663.14 384.48 677.16 394.18 690.86 403.87 702.29 413.56 709.78 423.25 712.27 432.95 709.4 442.64 701.57 452.33 689.92 462.03 676.12 471.72 662.16 481.41 650.04 491.1 641.52 500.8 637.82 510.49 639.46 520.18 646.22 529.88 657.12 539.57 655.2 548.79 653.51 558.48 651.81 568.52 649.84 578.77 647.37 589.08 644.18 599.29 640.1 609.26 634.98 618.83 628.73 627.88 621.29 636.27 612.65 643.91 602.85 650.7 591.96 656.6 580.1 661.54 567.42 665.54 554.09 668.61 540.3 670.78 526.25 672.13 512.17 672.76 498.24 672.78 484.66 672.32 471.61 671.53 459.22 670.59 447.62 669.64 436.89 668.87 427.08 668.43 410.66 669.57 396.77 673 382.83 676.37 364 673.26 345.53 670.06 329.32 669.09 316.3 670.47 304.61 672.29 285.5 672.21 270.88 668.92 264.19 665.74 257.01 661.62 249.3 656.55 241.06 650.54 232.32 643.63 223.11 635.89 213.48 627.4 203.51 618.28 193.28 608.64 182.86 598.63 172.36 588.4 161.86 578.08 151.44 567.85 141.16 557.84 131.1 548.2 121.29 539.05 119.04 529.36 117.64 519.67 117.3 509.99 118.06 500.3 119.83 490.61 122.34 480.93 125.23 471.24 128.08 461.55 130.5 451.87 132.12 442.18 132.71 432.49 132.2 422.81 130.65 413.12 128.28 403.44 125.44 393.75 122.54 384.06 119.99 374.38 118.16 364.69 117.32 355 117.58 345.32 118.9 335.63 121.11 325.94 123.87 316.26 126.8 306.57 129.46 296.89 131.48 287.2 132.57 277.51 132.57 267.83 131.48 258.14 129.46 248.45 128.83 232.81 137.82 224.83 151.9 221.04 166.47 217.09 174.24 214.82 182.39 212.25 190.97 209.33 200.01 206.01 209.54 202.24 219.53 198.01 229.97 193.3 240.8 188.12 251.97 182.48 263.38 176.41 274.93 169.95 286.52 163.16 298.01 156.09 309.29 148.82 320.24 141.41 330.75 133.93 340.71 126.46 350.05 119.07 358.7 111.83 366.63 104.8 373.84 98.04 380.33 91.58 395.93 74.63 400.66 69.35" stroke-dasharray="5 8" transform="rotate(4.04, 400, 400)" opacity="0.27"></path><path d="M411.14 81.58Q423.05 86.32 434.59 91.42 445.62 96.89 456.04 102.71 465.73 108.86 474.63 115.32 482.68 122.05 489.85 129 496.17 136.11 501.66 143.33 510.21 157.79 517.18 171.97 523.11 185.07 529.47 197.18 538.35 207.26 549.67 216.01 557.05 219.6 565.53 222.77 575.12 225.55 585.82 227.99 597.57 230.15 610.27 232.09 623.79 233.88 637.97 235.59 652.63 237.31 667.55 239.12 680.4 248.49 691.07 257.86 698.14 267.23 700.68 276.6 698.35 285.97 691.46 295.34 680.92 304.71 668.14 314.08 654.8 323.45 642.69 332.82 633.4 342.19 628.18 351.56 627.71 360.94 632.06 370.31 640.64 379.68 652.33 389.05 665.57 398.42 678.6 407.79 689.69 417.16 697.37 426.53 700.61 435.9 699 445.27 692.74 454.64 682.66 464.01 670.11 473.38 656.74 482.75 644.34 492.12 634.54 501.49 628.66 510.86 627.47 520.23 631.12 529.6 639.14 538.97 636.46 548.3 634.29 557.92 632.41 567.71 630.6 577.52 628.64 587.23 626.32 596.72 623.46 605.83 619.88 614.48 615.45 622.53 610.06 629.9 603.64 636.52 596.15 642.32 587.6 647.27 578.03 651.36 567.51 654.59 556.15 657 544.07 658.63 531.43 659.57 518.38 659.9 505.12 659.74 491.8 659.21 478.62 658.45 465.72 657.6 453.26 656.8 441.37 656.21 430.15 655.97 419.68 656.21 410.01 657.05 393.51 661.42 379.32 668.41 362.26 661.67 347.37 657.52 327.61 657.59 314.89 659.2 295.96 659.68 280.57 657.38 273.33 654.87 265.56 651.52 257.29 647.32 248.53 642.25 239.34 636.34 229.78 629.62 219.92 622.14 209.83 614 199.6 605.29 189.31 596.11 179.04 586.59 168.88 576.85 158.88 567.03 149.1 557.25 139.59 547.66 130.37 538.37 128.55 529.01 127.72 519.64 127.99 510.28 129.32 500.92 131.54 491.55 134.35 482.19 137.38 472.83 140.22 463.47 142.51 454.1 143.92 444.74 144.29 435.38 143.55 426.01 141.81 416.65 139.3 407.29 136.35 397.92 133.35 388.56 130.71 379.2 128.76 369.83 127.78 360.47 127.88 351.11 129.07 341.74 131.17 332.38 133.91 323.02 136.93 313.65 139.83 304.29 142.22 294.93 143.78 285.56 144.3 276.2 143.73 266.84 142.13 257.47 149.07 237.99 163.01 231.69 176.36 227.51 190.38 222.5 197.95 219.39 205.92 215.85 214.34 211.88 223.24 207.45 232.6 202.58 242.43 197.26 252.69 191.53 263.33 185.42 274.28 178.97 285.45 172.24 296.76 165.28 308.08 158.15 319.32 150.92 330.35 143.66 341.06 136.44 351.36 129.31 361.13 122.34 370.31 115.59 378.84 109.09 386.67 102.9 405.51 86.64 411.14 81.58" stroke-dasharray="3 7" transform="rotate(8.08, 400, 400)" opacity="0.43"></path><path d="M419.01 93.81Q429.12 98.35 438.63 103.24 447.47 108.47 455.59 114.03 462.95 119.92 469.54 126.1 480.2 139.3 488.96 153.01 495.56 167.03 501.65 180.89 508.43 193.88 516.53 206.03 528.16 216.38 542.47 225.5 551.33 229.31 561.17 232.71 571.97 235.71 583.65 238.35 596.11 240.66 609.23 242.7 622.87 244.52 636.85 246.18 650.99 247.76 665.09 249.33 676.05 258.38 684.2 267.43 688.54 276.48 688.54 285.53 684.2 294.57 676.06 303.62 665.1 312.67 652.66 321.72 640.27 330.77 629.43 339.82 621.46 348.87 617.34 357.92 617.57 366.96 622.13 376.01 630.45 385.06 641.52 394.11 653.99 403.16 666.34 412.21 677.07 421.25 684.85 430.3 688.75 439.35 688.28 448.4 683.51 457.45 675.02 466.5 663.84 475.55 651.33 484.59 639.03 493.64 628.43 502.69 620.83 511.74 617.16 520.79 617.85 529.83 622.84 538.88 619.17 548.09 616.2 557.42 613.75 566.74 611.65 575.95 607.62 593.34 602.95 609.42 595.64 622.46 586 633.32 571.83 640.33 554.89 645.09 544.89 646.26 534.15 646.86 522.77 646.96 510.88 646.68 498.62 646.12 486.14 645.41 473.58 644.67 461.09 644.03 448.82 643.62 436.89 643.56 425.42 643.97 414.51 644.94 404.22 646.58 394.62 648.97 378.24 652.21 364.54 649.2 346.74 645 335.16 644.74 317.47 646.87 302.96 647.46 288.45 645.2 272.45 640.95 263.65 637.54 254.46 633.35 244.94 628.38 235.18 622.64 225.24 616.18 215.21 609.04 205.16 601.29 195.17 593.03 185.3 584.33 175.62 575.31 166.17 566.08 156.99 556.74 148.12 547.43 139.55 538.24 138.32 529.2 138.15 520.15 139.05 511.11 140.93 502.07 143.54 493.03 146.57 483.99 149.66 474.95 152.41 465.91 154.51 456.87 155.69 447.83 155.8 438.79 154.84 429.74 152.92 420.7 150.28 411.66 147.23 402.62 144.16 393.58 141.43 384.54 139.37 375.5 138.25 366.46 138.19 357.41 139.21 348.37 141.17 339.33 143.85 330.29 146.9 321.25 149.97 312.21 152.67 303.17 154.68 294.12 155.75 285.08 155.75 276.04 154.68 267 161.69 248.38 174.87 242.31 187.01 237.87 199.49 232.49 213.25 225.18 228.13 216.61 236.32 211.58 244.98 206.16 254.11 200.37 263.69 194.25 273.69 187.83 284.05 181.18 294.72 174.35 305.61 167.39 316.63 160.37 327.69 153.35 338.67 146.38 349.49 139.53 360.02 132.84 370.17 126.36 379.84 120.15 388.97 114.22 397.49 108.61 405.34 103.33 415.77 96.1 419.01 93.81" stroke-dasharray="6 2" transform="rotate(12.12, 400, 400)" opacity="0.42"></path><path d="M422.43 106.03Q437.65 115.04 450.21 125.34 460.24 136.86 468.17 149.39 474.74 162.62 480.87 176.19 487.61 189.66 495.97 202.6 506.86 214.61 520.92 225.37 538.44 234.63 559.33 242.29 583.09 248.4 608.84 253.14 635.46 256.81 661.63 259.84 675.78 277.29 675.24 294.74 660.26 312.19 637.35 329.65 616.45 347.1 606.65 364.55 612.21 382 630.71 399.45 654.11 416.9 672.25 434.35 677.24 451.8 666.92 469.25 645.77 486.7 622.98 504.14 608.45 521.59 608.49 539.04 599.75 556.73 593.71 573.87 589.23 589.72 585.05 603.61 579.94 615.05 572.83 623.74 562.93 629.64 549.8 632.93 533.39 634.04 514.02 633.61 492.33 632.42 469.19 631.34 445.58 631.22 422.49 632.88 400.77 636.97 381.07 643.95 371.52 637.19 363.03 633.3 354.79 631.8 345.99 632.02 335.96 633.16 324.22 634.33 310.53 634.67 294.88 633.42 277.52 629.96 258.87 623.87 239.47 614.97 219.89 603.34 200.7 589.28 182.32 573.3 165.06 556.08 149.03 538.38 149.02 520.95 152.9 503.51 158.99 486.08 164.65 468.64 167.41 451.21 166.07 433.77 161.22 416.33 154.97 398.9 150.02 381.46 148.54 364.03 151.16 346.59 156.74 329.16 162.87 311.72 166.87 294.28 167.02 276.85 163.23 259.41 175.66 256.4 187.29 252.79 198.48 248.14 209.73 242.13 221.57 234.58 234.51 225.43 248.97 214.79 265.19 202.86 283.23 189.98 302.89 176.54 323.76 162.97 345.23 149.71 366.58 137.12 387.02 125.53 405.83 115.14 422.43 106.03 422.43 106.03 422.43 106.03" stroke-dasharray="6 10" transform="rotate(16.16, 400, 400)" opacity="0.42"></path><path d="M420.6 118.26Q431.72 126.84 440.75 136.65 448.14 147.61 454.56 159.54 460.82 172.19 467.8 185.23 476.34 198.29 487.17 210.98 500.81 222.93 517.49 233.8 537.14 243.37 559.34 251.47 583.4 258.08 608.39 263.3 633.21 267.33 656.77 270.48 665.74 287.27 660.91 304.06 644.2 320.85 622.24 337.64 603.76 354.43 596.1 371.23 602.3 388.02 619.9 404.81 641.9 421.6 659.58 438.39 665.9 455.18 658.35 471.97 639.94 488.76 617.98 505.55 601.19 522.34 596.23 539.13 585.3 555.61 577.36 571.13 571.62 585.09 567.09 597.02 562.7 606.58 557.43 613.61 550.39 618.19 540.92 620.56 528.62 621.16 513.44 620.58 495.6 619.52 475.6 618.73 454.13 618.94 432 620.84 410.03 624.98 389 631.72 381.45 625.19 373.84 621.24 365.47 619.5 355.77 619.39 344.33 620.24 330.99 621.29 315.77 621.81 298.91 621.1 280.82 618.58 261.97 613.83 242.93 606.59 224.18 596.85 206.18 584.75 189.23 570.64 173.48 555.01 158.95 538.49 160.38 521.71 165.23 504.93 171.57 488.16 176.89 471.38 179.06 454.6 177.24 437.82 172.14 421.05 165.78 404.27 160.7 387.49 158.91 370.71 161.12 353.94 166.46 337.16 172.8 320.38 177.62 303.6 179.02 286.82 176.43 270.05 188.72 266.94 200.05 262.99 210.67 257.87 220.97 251.37 231.42 243.38 242.52 233.92 254.72 223.14 268.41 211.28 283.82 198.64 301 185.6 319.79 172.55 339.83 159.86 360.61 147.87 381.47 136.83 401.69 126.94 420.6 118.26 420.6 118.26 420.6 118.26" stroke-dasharray="4 3" transform="rotate(20.200000000000003, 400, 400)" opacity="0.75"></path><path d="M413.96 130.48Q422.02 138.65 428.9 147.95 435.21 158.34 441.65 169.67 448.94 181.72 457.77 194.21 468.72 206.81 482.16 219.18 498.27 230.98 516.96 241.9 537.86 251.7 560.4 260.2 583.81 267.31 607.19 273.06 629.6 277.56 650.18 281.03 654.1 297.15 645.69 313.26 627.99 329.38 607.41 345.49 591.37 361.6 585.68 377.72 592.4 393.83 609.09 409.95 629.72 426.06 646.84 442.17 654.25 458.29 649.29 474.4 633.73 490.52 613.22 506.63 595.15 522.74 586.06 538.86 573.06 553.82 563.06 567.55 555.59 579.59 549.95 589.61 540.42 601.9 528.75 608 519.92 608.21 508.66 607.57 494.88 606.68 478.71 606.19 460.51 606.73 440.8 608.84 420.24 613 399.49 619.5 392.32 613.2 384.16 609.22 374.55 607.26 363.2 606.83 350 607.39 335.04 608.28 318.56 608.89 300.94 608.59 282.64 606.85 264.15 603.26 245.95 597.53 228.45 589.54 211.94 579.35 196.6 567.16 182.46 553.31 169.43 538.26 172.26 522.15 177.88 506.05 184.26 489.95 189.09 473.85 190.64 457.75 188.33 441.65 183.01 425.54 176.59 409.44 171.4 393.34 169.31 377.24 171.08 361.14 176.07 345.03 182.47 328.93 187.97 312.83 190.59 296.73 189.37 280.62 201.67 277.22 212.92 272.81 223.27 267.16 232.99 260.16 242.46 251.78 252.1 242.08 262.39 231.24 273.74 219.5 286.5 207.17 300.91 194.58 317.02 182.08 334.74 169.99 353.79 158.6 373.73 148.13 393.99 138.74 413.96 130.48 413.96 130.48 413.96 130.48" stroke-dasharray="6 8" transform="rotate(24.24, 400, 400)" opacity="0.17"></path><path d="M404.04 142.71Q410.53 150.45 416.83 159.26 423.53 169.08 431.23 179.79 440.47 191.22 451.66 203.12 465.08 215.21 480.81 227.2 498.73 238.78 518.54 249.67 539.72 259.62 561.63 268.44 583.52 276.02 604.64 282.31 624.23 287.36 641.66 291.31 640.93 306.72 629.75 322.14 611.77 337.55 592.89 352.97 579.28 368.38 575.39 383.8 582.5 399.21 598.27 414.62 617.56 430.04 634.04 445.45 642.33 460.87 639.71 476.28 627.04 491.69 608.47 507.11 590.07 522.52 577.86 537.93 563.08 551.2 551.09 563.05 541.68 573.18 534.44 581.38 524.1 590.94 514.26 595.31 507.91 595.25 499.86 594.62 489.78 593.94 477.51 593.75 463.12 594.58 446.81 596.88 428.98 601.03 410.11 607.28 401.89 601.21 392.13 597.23 380.64 595.08 367.4 594.36 352.54 594.62 336.33 595.33 319.12 595.94 301.35 595.93 283.47 594.81 265.9 592.2 249.01 587.8 233.09 581.43 218.28 573.05 204.66 562.76 192.15 550.77 180.59 537.41 184.66 522 190.81 506.6 197.01 491.2 201.24 475.79 202.12 460.39 199.35 444.98 193.84 429.58 187.4 414.18 182.14 398.77 179.76 383.37 181.06 367.96 185.61 352.56 191.91 337.16 197.92 321.75 201.65 306.35 201.89 290.94 214.3 287.08 225.64 282.12 235.97 275.94 245.46 268.47 254.36 259.75 263.03 249.89 271.86 239.08 281.26 227.55 291.65 215.59 303.33 203.5 316.54 191.58 331.39 180.11 347.83 169.33 365.67 159.43 384.56 150.54 404.04 142.71 404.04 142.71 404.04 142.71" stroke-dasharray="1 9" transform="rotate(28.28, 400, 400)" opacity="0.17"></path><path d="M393.18 154.93Q399.63 162.25 406.73 170.56 414.95 179.8 424.67 189.9 436.2 200.68 449.7 211.96 465.17 223.5 482.48 235.05 501.32 246.33 521.24 257.09 541.72 267.1 562.13 276.17 581.84 284.15 600.24 290.96 616.81 296.6 631.14 301.11 626.39 315.8 613.29 330.49 595.68 345.18 578.75 359.86 567.49 374.55 565.21 389.24 572.59 403.93 587.46 418.62 605.42 433.31 621.2 448 630.14 462.68 629.62 477.37 619.78 492.06 603.52 506.75 585.64 521.44 571.4 536.13 555.28 547.56 541.56 557.53 530.26 565.83 521.18 572.37 501.17 580.93 487.82 581.75 480.63 581.29 471.78 581.4 461.09 582.49 448.52 584.95 434.2 589.07 418.36 595.05 408.19 589.24 396.37 585.28 382.93 582.97 368.06 581.98 352.04 581.95 335.22 582.44 318.01 582.99 300.79 583.16 283.95 582.53 267.8 580.72 252.6 577.45 238.48 572.52 225.49 565.82 213.6 557.36 202.66 547.26 192.47 535.7 197.57 521.02 203.96 506.34 209.78 491.65 213.3 476.97 213.49 462.29 210.29 447.61 204.64 432.93 198.21 418.25 192.9 403.57 190.26 388.89 191.07 374.21 195.1 359.53 201.16 344.85 207.46 330.17 212.14 315.49 213.84 300.81 226.39 296.38 237.93 290.85 248.44 284.14 257.98 276.27 266.71 267.3 274.88 257.37 282.78 246.67 290.79 235.43 299.27 223.9 308.59 212.35 319.06 201.04 330.92 190.21 344.3 180.05 359.24 170.73 375.61 162.34 393.18 154.93 393.18 154.93 393.18 154.93" stroke-dasharray="5 5" transform="rotate(32.32, 400, 400)" opacity="0.86"></path><path d="M383.91 167.16Q391.55 174.06 400.38 181.87 410.67 190.54 422.6 200 436.22 210.13 451.5 220.77 468.24 231.72 486.18 242.76 504.92 253.66 523.99 264.21 542.9 274.18 561.14 283.38 578.2 291.67 593.67 298.94 607.22 305.14 618.64 310.27 610.69 324.2 596.5 338.14 579.81 352.07 565 366.01 556 379.95 555.15 393.88 562.7 407.82 576.64 421.75 593.32 435.69 608.32 449.63 617.71 463.56 619.01 477.5 611.87 491.44 598.18 505.37 581.54 519.31 566.34 533.25 549.4 542.82 534.38 550.96 521.43 557.56 510.57 562.6 495.03 567.8 483.33 569.67 473.53 569.06 462.08 569.13 454.45 570.46 445.33 573.04 434.61 577.1 422.31 582.82 409.99 577.27 396.25 573.35 381.32 570.91 365.5 569.68 349.1 569.37 332.5 569.63 316.03 570.07 300.04 570.33 284.77 570.04 270.44 568.87 257.15 566.54 244.95 562.85 233.79 557.66 223.56 550.92 214.06 542.63 205.09 532.93 210.9 519 217.26 505.07 222.5 491.13 225.23 477.2 224.73 463.27 221.14 449.34 215.4 435.41 209.03 421.48 203.69 407.55 200.81 393.62 201.13 379.69 204.58 365.76 210.24 351.83 216.62 337.9 222.05 323.97 225.09 310.04 237.75 305.01 249.52 298.91 260.32 291.74 270.14 283.55 279.03 274.43 287.12 264.53 294.64 254.03 301.84 243.16 309.05 232.13 316.58 221.16 324.78 210.49 333.94 200.31 344.31 190.78 356.06 182.03 376.59 170.66 383.91 167.16" stroke-dasharray="6 10" transform="rotate(36.36, 400, 400)" opacity="0.88"></path><path d="M378.41 179.39Q387.92 185.87 398.8 193.17 411.1 201.26 424.83 210.09 439.88 219.56 456.06 229.53 473.09 239.85 490.64 250.33 508.31 260.79 525.7 271.02 542.4 280.84 558.02 290.07 572.23 298.57 584.77 306.2 595.49 312.9 604.33 318.63 594.09 331.78 579.6 344.94 564.28 358.1 551.69 371.25 544.79 384.41 545.19 397.57 552.8 410.72 565.83 423.88 581.24 437.04 595.42 450.2 605.06 463.35 607.9 476.51 603.27 489.67 592.26 502.83 577.45 515.98 562.29 529.14 545.09 536.91 529.29 543.34 515.13 548.41 502.73 552.16 483.94 555.74 469.55 556.82 451.8 557.46 437.63 561.17 429.98 565.16 421.04 570.6 407.01 565.31 392.07 561.46 376.51 558.92 360.63 557.48 344.76 556.91 329.19 556.92 314.18 557.22 299.95 557.48 286.64 557.41 274.34 556.71 263.06 555.15 252.76 552.5 243.31 548.62 234.57 543.41 226.34 536.85 218.39 528.95 224.58 515.79 230.62 502.64 235.11 489.49 237 476.33 235.84 463.18 231.91 450.02 226.13 436.87 219.84 423.71 214.52 410.56 211.42 397.41 211.26 384.25 214.07 371.1 219.21 357.95 225.46 344.79 231.37 331.64 235.55 318.49 248.24 312.86 260.21 306.26 271.33 298.71 281.53 290.3 290.79 281.14 299.16 271.38 306.74 261.18 313.71 250.75 320.3 240.26 326.76 229.93 333.39 219.92 340.48 210.4 348.3 201.5 357.11 193.33 372.76 182.67 378.41 179.39" stroke-dasharray="9 0" transform="rotate(40.400000000000006, 400, 400)" opacity="0.53"></path><path d="M377.96 191.61Q389.37 197.67 401.98 204.47 415.72 211.99 430.44 220.19 445.96 228.99 462.02 238.27 478.32 247.93 494.54 257.8 510.36 267.74 525.46 277.57 539.54 287.13 552.37 296.27 563.74 304.84 573.56 312.72 581.79 319.82 588.48 326.08 576.86 338.43 562.8 350.78 549.19 363.14 538.84 375.49 533.88 387.84 535.33 400.2 542.9 412.55 555.02 424.9 569.2 437.25 582.51 449.61 592.21 461.96 596.3 474.31 593.94 486.67 585.61 499.02 573.03 511.38 558.8 523.73 541.9 529.8 525.89 534.69 511.05 538.44 497.57 541.11 485.57 542.82 475.08 543.73 458.93 543.91 446.18 543.7 428.83 549.26 414.85 558.37 400.05 553.36 384.93 549.6 369.77 546.99 354.81 545.37 340.31 544.56 326.47 544.33 313.43 544.44 301.3 544.64 290.13 544.68 279.9 544.32 262.32 541.04 246.61 534.89 239.41 529.87 232.29 523.67 238.48 511.32 243.94 498.97 247.56 486.61 248.59 474.26 246.81 461.91 242.6 449.55 236.81 437.2 230.65 424.85 225.38 412.5 222.09 400.15 221.46 387.79 223.62 375.44 228.12 363.09 234.03 350.74 240.14 338.39 245.19 326.03 257.77 319.87 269.83 312.86 281.21 305.06 291.79 296.56 301.52 287.48 310.37 277.96 318.36 268.16 325.57 258.23 332.13 248.35 338.22 238.67 344.06 229.34 349.88 220.49 355.93 212.22 362.48 204.63 373.85 194.68 377.96 191.61" stroke-dasharray="10 6" transform="rotate(44.44, 400, 400)" opacity="0.14"></path><path d="M382.66 203.83Q395.4 209.48 408.96 215.78 423.19 222.73 437.89 230.29 452.83 238.41 467.78 247 482.47 255.97 496.65 265.19 510.09 274.54 522.57 283.88 533.92 293.08 544.02 302 552.79 310.51 560.23 318.5 566.4 325.88 571.42 332.55 559.33 344.08 546.29 355.6 534.63 367.13 526.45 378.66 523.24 390.18 525.55 401.71 532.99 413.24 544.21 424.77 557.19 436.29 569.59 447.82 579.19 459.35 584.25 470.88 583.87 482.41 578.11 493.93 568.01 505.46 555.39 516.99 539.3 521.54 523.66 525.11 508.72 527.74 494.71 529.54 481.8 530.62 470.1 531.15 451.07 531.2 435.54 531.26 417.23 537.29 405.18 546.15 390.79 541.42 376.59 537.78 362.79 535.13 349.58 533.36 337.09 532.33 325.42 531.86 314.62 531.77 304.71 531.86 287.7 531.55 272.69 530.03 259.57 524.94 246.63 517.06 252.46 505.54 257.13 494.01 259.79 482.48 259.97 470.95 257.63 459.42 253.19 447.89 247.46 436.36 241.46 424.83 236.28 413.3 232.84 401.78 231.77 390.25 233.26 378.72 237.04 367.19 242.42 355.66 248.45 344.14 254.04 332.61 266.34 326.02 278.31 318.73 289.79 310.8 300.67 302.35 310.84 293.47 320.22 284.3 328.78 274.97 336.54 265.62 343.53 256.39 349.84 247.39 355.6 238.75 360.98 230.58 377.07 210.04 382.66 203.83" stroke-dasharray="7 9" transform="rotate(48.48, 400, 400)" opacity="0.88"></path><path d="M391.41 216.06Q404.53 221.28 418 227.09 431.66 233.47 445.31 240.4 458.76 247.84 471.82 255.73 484.29 263.98 496.01 272.51 506.84 281.21 516.67 289.99 525.42 298.73 533.06 307.31 539.61 315.63 545.14 323.58 549.74 331.06 553.56 338.01 541.81 348.7 530.24 359.38 520.65 370.06 514.54 380.75 512.86 391.43 515.86 402.12 523.08 412.8 533.4 423.48 545.21 434.17 556.67 444.85 566.01 455.54 571.77 466.22 573.06 476.91 569.67 487.59 562.13 498.28 551.61 508.96 536.76 512.21 521.99 514.68 507.53 516.43 493.59 517.57 480.35 518.21 467.96 518.49 456.53 518.54 446.13 518.54 428.92 519.17 414.57 521.02 403.83 526.18 394.3 533.92 381.39 529.49 369.04 525.98 357.34 523.33 346.39 521.45 336.24 520.23 326.9 519.54 310.85 519.21 296.74 519.12 284.73 517.86 273.17 515.07 266.84 505.5 270.07 487.79 271.74 477.1 271.11 466.41 268.28 455.73 263.7 445.04 258.07 434.35 252.27 423.67 247.21 412.98 243.67 402.29 242.2 391.6 243.02 380.92 246.02 370.23 250.72 359.54 256.4 348.86 262.17 338.17 273.99 331.3 285.66 323.87 297.05 315.98 308.02 307.71 318.47 299.16 328.3 290.44 337.44 281.66 345.85 272.95 353.51 264.39 360.43 256.11 366.67 248.17 372.3 240.68 386.78 221.79 391.41 216.06" stroke-dasharray="8 1" transform="rotate(52.52, 400, 400)" opacity="0.90"></path><path d="M402.18 228.28Q414.59 233.09 426.95 238.4 439.11 244.23 450.91 250.53 462.22 257.3 472.91 264.47 482.88 271.99 492.04 279.8 500.33 287.82 507.72 295.96 514.2 304.14 519.82 312.26 528.45 327.84 535.34 342.49 524.58 352.31 514.81 362.14 507.32 371.97 503.1 381.8 502.72 391.63 506.23 401.46 513.16 411.29 522.59 421.12 533.27 430.95 543.78 440.78 552.72 450.6 558.91 460.43 561.53 470.26 560.23 480.09 555.18 489.92 547.05 499.75 533.76 501.93 520.28 503.54 506.8 504.63 493.5 505.31 480.54 505.67 468.07 505.82 456.22 505.89 445.09 506 434.76 506.27 425.26 506.83 409.22 509.53 395.54 514 381.99 517.51 364.13 514.21 346.71 509.92 331.38 507.36 310.82 506.49 297.59 505.89 283.56 496.99 282.68 480.4 283.36 470.57 282 460.74 278.77 450.9 274.12 441.07 268.65 431.24 263.09 421.41 258.18 411.57 254.57 401.74 252.75 391.91 252.95 382.07 255.14 372.24 259.04 362.41 264.13 352.57 269.73 342.74 280.86 335.75 292 328.37 303.03 320.65 313.85 312.7 324.34 304.59 334.4 296.42 343.96 288.27 352.94 280.23 361.28 272.4 368.95 264.83 375.95 257.61 382.29 250.8 397.55 233.54 402.18 228.28" stroke-dasharray="3 7" transform="rotate(56.56, 400, 400)" opacity="0.42"></path><path d="M412.44 240.52Q433.69 249.73 453.2 260.69 470.3 273.24 484.61 287.09 496.03 301.83 504.83 316.94 511.6 331.87 517.2 346.05 500.13 363.98 492.12 381.91 496.67 399.84 511.78 417.77 530.89 435.7 545.71 453.63 549.79 471.55 541.36 489.48 517.94 491.84 493.66 492.87 469.58 493.22 446.71 493.63 425.82 494.84 407.45 497.53 391.81 502.27 378.77 509.47 363.18 502.46 350.02 497.89 338.89 495.34 329.18 494.22 320.17 493.84 311.11 493.47 301.31 492.37 290.22 489.9 294.86 471.96 292.61 454.03 284.44 436.09 273.9 418.15 265.57 400.21 263.06 382.27 267.48 364.33 276.89 346.39 297.52 332.29 318.3 317.4 338.53 302.29 357.51 287.52 374.67 273.59 389.6 260.94 407.29 245.19 412.44 240.52" stroke-dasharray="11 4" transform="rotate(60.599999999999994, 400, 400)" opacity="0.72"></path><path d="M419.78 252.74Q436.56 261.06 451.32 270.86 463.82 282.04 474.05 294.39 482.23 307.64 488.77 321.4 494.3 335.26 499.57 348.79 486.3 364.99 481.59 381.19 487.15 397.39 500.96 413.59 518.04 429.79 532.21 445.99 538.35 462.19 534.24 478.39 514.44 479.76 493.28 480.38 471.53 480.77 449.97 481.47 429.31 483.04 410.14 485.94 392.88 490.58 377.75 497.24 366.71 490.75 357.27 486.27 341.09 482.43 324.72 480.99 315.12 480.34 304.14 478.89 306.54 462.68 302.96 446.47 294.68 430.26 284.71 414.05 276.65 397.84 273.4 381.63 276.15 365.41 283.9 349.2 302.52 335.73 321.7 321.88 340.91 308.1 359.62 294.81 377.26 282.37 393.38 271.09 413.69 256.96 419.78 252.74" stroke-dasharray="2 1" transform="rotate(64.64, 400, 400)" opacity="0.09"></path><path d="M422.49 264.96Q434.71 272.4 445.16 281.06 453.89 290.89 461.1 301.76 467.12 313.46 472.39 325.75 477.44 338.32 482.83 350.88 473.39 365.35 471.48 379.83 477.67 394.31 490.15 408.78 505.23 423.26 518.47 437.74 525.98 452.22 525.54 466.7 509.35 467.49 491.66 467.96 472.93 468.52 453.69 469.54 434.5 471.4 415.86 474.44 398.23 478.92 381.94 485.02 367.48 475.44 353.8 470.05 346.32 469.09 337.9 468.56 328.3 468.08 317.38 467.25 317.65 452.76 313.01 438.27 304.83 423.78 295.52 409.29 287.82 394.81 283.99 380.32 285.17 365.83 291.01 351.34 307.33 338.81 324.44 326.23 342.01 313.91 359.64 302.15 376.9 291.2 393.38 281.28 415.59 268.74 422.49 264.96" stroke-dasharray="3 3" transform="rotate(68.68, 400, 400)" opacity="0.13"></path><path d="M419.95 277.19Q428.28 283.75 435.4 291.3 441.49 299.81 446.8 309.2 451.67 319.34 456.45 330.07 461.52 341.19 467.29 352.5 461.41 365.26 461.75 378.03 468.23 390.8 479.34 403.57 492.46 416.34 504.55 429.11 507.59 448.54 488.22 455.73 472.86 456.53 456.65 457.86 439.93 459.95 423.07 463.04 406.43 467.28 390.35 472.8 378.79 463.87 366.23 458.32 358.71 457.06 350.16 456.31 340.5 455.79 329.72 455.23 328.15 442.45 322.79 429.67 314.9 416.89 306.33 404.11 299.09 391.33 294.86 378.55 294.64 365.77 298.47 353 312.32 341.69 327.04 330.54 342.43 319.77 358.26 309.56 374.24 300.1 390.06 291.5 412.67 280.52 419.95 277.19" stroke-dasharray="4 2" transform="rotate(72.72, 400, 400)" opacity="0.69"></path><path d="M412.73 289.41Q423.12 301.96 432.34 316.75 436.83 325.34 441.63 334.47 447 344.02 453.16 353.86 450.37 364.94 452.38 376.03 458.82 387.11 468.52 398.19 479.76 409.28 490.49 420.36 496.14 437.26 482.6 443.8 470.64 444.86 457.75 446.44 444.12 448.69 429.96 451.73 415.52 455.67 401.01 460.57 390.2 452.4 377.5 446.85 369.73 445.35 361.06 444.33 351.48 443.65 341.03 443.11 338.01 432.02 332.29 420.93 324.89 409.83 317.15 398.74 310.46 387.65 306.02 376.55 304.64 365.46 306.55 354.37 317.89 344.51 330.03 334.92 342.9 325.74 356.37 317.09 370.29 309.07 384.46 301.75 405.71 292.3 412.73 289.41" stroke-dasharray="9 2" transform="rotate(76.76, 400, 400)" opacity="0.16"></path><path d="M402.54 301.63Q410.66 312.18 418.9 324.45 423.46 331.51 428.51 339.04 434.18 346.96 440.57 355.2 440.23 364.63 443.32 374.05 449.42 383.48 457.72 392.9 467.11 402.33 476.36 411.75 474.59 429.9 456.16 435.31 445.8 437.61 434.82 440.51 414.78 444.12 400.42 440.7 386.41 435.94 370.29 432.74 361.05 431.83 351.22 431.16 347.26 421.73 341.53 412.29 334.8 402.86 327.96 393.43 321.92 384 317.49 374.56 315.24 365.13 315.48 355.7 324.38 347.43 333.94 339.46 344.15 331.88 354.95 324.75 366.29 318.13 378.08 312.05 396.37 304.09 402.54 301.63" stroke-dasharray="2 9" transform="rotate(80.80000000000001, 400, 400)" opacity="0.94"></path><path d="M391.74 313.87Q399.12 322.27 407.5 332.31 417.49 343.88 429.55 356.75 434.53 372.35 446.9 387.94 462.21 403.53 474.9 419.11 464.31 421.19 451.43 424.49 436.3 429.38 419.2 436.12 407.36 429.54 393.47 424.79 377.66 421.61 360.27 419.62 350.52 404.02 338.77 388.42 329.27 372.82 325.45 357.21 339.24 344.25 354.96 332.57 372.54 322.4 391.74 313.87 391.74 313.87 391.74 313.87" stroke-dasharray="0 10" transform="rotate(84.84, 400, 400)" opacity="0.56"></path><path d="M382.88 326.09Q390.33 332.69 398.87 340.37 408.73 349.08 420.03 358.75 425.95 371.14 436.09 383.53 450.03 403.3 443.53 413.97 433.69 418.34 422.45 423.89 410.53 418.46 397.38 414.21 383.19 411.02 368.23 408.74 359.29 396.34 349.59 383.94 341.37 371.55 336.58 359.15 346.27 349.4 357.18 340.58 376.13 329.45 382.88 326.09" stroke-dasharray="2 4" transform="rotate(88.88, 400, 400)" opacity="0.69"></path><path d="M378.03 338.32Q385.32 343.17 393.36 348.64 402.21 354.73 411.86 361.4 417.54 370.64 425.28 379.88 431.53 401.16 420.46 411.67 409.79 407.47 398.62 403.94 387.06 401.04 375.23 398.7 367.87 389.45 360.39 380.21 354.5 362.97 362.11 348.81 373.86 340.78 378.03 338.32" stroke-dasharray="1 4" transform="rotate(92.92, 400, 400)" opacity="0.44"></path><path d="M378.31 350.54Q390.89 357.16 404.81 364.9 414.46 377.16 425.89 389.44 420.19 393.87 413.68 399.44 397.7 393.99 381.49 389.67 371.2 377.39 362.51 365.12 374.11 353.91 378.31 350.54" stroke-dasharray="1 4" transform="rotate(96.96, 400, 400)" opacity="0.48"></path></g></svg>