<svg xmlns="http://www.w3.org/2000/svg" version="1.1" xmlns:xlink="http://www.w3.org/1999/xlink" xmlns:svgjs="http://svgjs.dev/svgjs" viewBox="0 0 800 800"><circle r="6.5" cx="66" cy="185" fill="hsl(132, 81%, 65%)" opacity="0.84"></circle><circle r="13" cx="462" cy="600" fill="hsl(255, 81%, 65%)" opacity="0.63"></circle><circle r="13.5" cx="596" cy="172" fill="hsl(283, 81%, 65%)" opacity="0.18"></circle><circle r="13" cx="374" cy="731" fill="hsl(216, 81%, 65%)" opacity="0.93"></circle><circle r="7" cx="360" cy="88" fill="hsl(213, 81%, 65%)" opacity="0.81"></circle><circle r="9" cx="99" cy="630" fill="hsl(117, 81%, 65%)" opacity="0.22"></circle><circle r="10.5" cx="422" cy="59" fill="hsl(202, 81%, 65%)" opacity="0.47"></circle><circle r="12.5" cx="432" cy="566" fill="hsl(248, 81%, 65%)" opacity="0.24"></circle><circle r="8" cx="151" cy="779" fill="hsl(90, 81%, 65%)" opacity="0.69"></circle><circle r="11" cx="416" cy="615" fill="hsl(244, 81%, 65%)" opacity="0.96"></circle><circle r="13.5" cx="739" cy="655" fill="hsl(210, 81%, 65%)" opacity="0.69"></circle><circle r="11" cx="315" cy="491" fill="hsl(174, 81%, 65%)" opacity="0.73"></circle><circle r="9" cx="64" cy="307" fill="hsl(132, 81%, 65%)" opacity="0.14"></circle><circle r="3.5" cx="156" cy="101" fill="hsl(83, 81%, 65%)" opacity="0.32"></circle><circle r="10.5" cx="70" cy="79" fill="hsl(111, 81%, 65%)" opacity="0.91"></circle><circle r="13" cx="718" cy="379" fill="hsl(242, 81%, 65%)" opacity="0.10"></circle><circle r="9" cx="208" cy="318" fill="hsl(94, 81%, 65%)" opacity="0.61"></circle><circle r="8.5" cx="590" cy="722" fill="hsl(295, 81%, 65%)" opacity="0.69"></circle><circle r="9.5" cx="177" cy="377" fill="hsl(89, 81%, 65%)" opacity="0.81"></circle><circle r="10.5" cx="755" cy="362" fill="hsl(193, 81%, 65%)" opacity="0.93"></circle><circle r="6" cx="146" cy="146" fill="hsl(90, 81%, 65%)" opacity="0.67"></circle><circle r="9" cx="230" cy="64" fill="hsl(133, 81%, 65%)" opacity="0.82"></circle><circle r="6" cx="372" cy="166" fill="hsl(212, 81%, 65%)" opacity="0.48"></circle><circle r="13" cx="653" cy="172" fill="hsl(287, 81%, 65%)" opacity="0.44"></circle><circle r="7.5" cx="755" cy="208" fill="hsl(193, 81%, 65%)" opacity="0.13"></circle><circle r="15" cx="492" cy="647" fill="hsl(265, 81%, 65%)" opacity="0.77"></circle><circle r="9.5" cx="630" cy="668" fill="hsl(298, 81%, 65%)" opacity="0.14"></circle><circle r="15" cx="26" cy="396" fill="hsl(154, 81%, 65%)" opacity="0.13"></circle><circle r="14.5" cx="673" cy="305" fill="hsl(286, 81%, 65%)" opacity="0.73"></circle><circle r="10" cx="712" cy="81" fill="hsl(224, 81%, 65%)" opacity="0.70"></circle><circle r="11.5" cx="530" cy="774" fill="hsl(276, 81%, 65%)" opacity="0.17"></circle><circle r="9" cx="349" cy="640" fill="hsl(196, 81%, 65%)" opacity="0.68"></circle><circle r="11.5" cx="733" cy="124" fill="hsl(217, 81%, 65%)" opacity="0.84"></circle><circle r="8.5" cx="36" cy="758" fill="hsl(154, 81%, 65%)" opacity="0.97"></circle><circle r="7.5" cx="784" cy="493" fill="hsl(157, 81%, 65%)" opacity="0.63"></circle><circle r="9" cx="676" cy="617" fill="hsl(278, 81%, 65%)" opacity="0.87"></circle><circle r="15" cx="503" cy="730" fill="hsl(269, 81%, 65%)" opacity="0.72"></circle><circle r="9" cx="449" cy="168" fill="hsl(237, 81%, 65%)" opacity="0.50"></circle><circle r="7.5" cx="231" cy="169" fill="hsl(111, 81%, 65%)" opacity="0.21"></circle><circle r="7.5" cx="274" cy="119" fill="hsl(153, 81%, 65%)" opacity="0.46"></circle><circle r="11.5" cx="622" cy="395" fill="hsl(298, 81%, 65%)" opacity="0.79"></circle><circle r="9" cx="732" cy="534" fill="hsl(226, 81%, 65%)" opacity="0.65"></circle><circle r="9.5" cx="464" cy="47" fill="hsl(167, 81%, 65%)" opacity="0.28"></circle><circle r="7" cx="139" cy="632" fill="hsl(93, 81%, 65%)" opacity="0.89"></circle><circle r="8.5" cx="730" cy="574" fill="hsl(226, 81%, 65%)" opacity="0.54"></circle><circle r="11" cx="281" cy="619" fill="hsl(141, 81%, 65%)" opacity="0.34"></circle><circle r="11" cx="20" cy="188" fill="hsl(161, 81%, 65%)" opacity="0.79"></circle><circle r="10" cx="583" cy="593" fill="hsl(292, 81%, 65%)" opacity="0.57"></circle><circle r="8.5" cx="762" cy="600" fill="hsl(193, 81%, 65%)" opacity="0.53"></circle><circle r="7" cx="345" cy="396" fill="hsl(196, 81%, 65%)" opacity="0.26"></circle><circle r="9" cx="775" cy="182" fill="hsl(175, 81%, 65%)" opacity="0.75"></circle><circle r="10.5" cx="500" cy="561" fill="hsl(269, 81%, 65%)" opacity="0.88"></circle><circle r="14.5" cx="377" cy="242" fill="hsl(225, 81%, 65%)" opacity="0.14"></circle><circle r="14.5" cx="611" cy="460" fill="hsl(297, 81%, 65%)" opacity="0.89"></circle><circle r="6.5" cx="176" cy="647" fill="hsl(89, 81%, 65%)" opacity="0.62"></circle><circle r="11.5" cx="58" cy="541" fill="hsl(139, 81%, 65%)" opacity="0.94"></circle><circle r="8" cx="783" cy="287" fill="hsl(157, 81%, 65%)" opacity="0.33"></circle><circle r="9" cx="15" cy="306" fill="hsl(161, 81%, 65%)" opacity="0.86"></circle><circle r="12.5" cx="407" cy="291" fill="hsl(239, 81%, 65%)" opacity="0.36"></circle><circle r="9.5" cx="630" cy="596" fill="hsl(298, 81%, 65%)" opacity="0.91"></circle><circle r="7" cx="15" cy="618" fill="hsl(161, 81%, 65%)" opacity="0.18"></circle><circle r="8" cx="131" cy="71" fill="hsl(74, 81%, 65%)" opacity="0.56"></circle><circle r="9" cx="486" cy="283" fill="hsl(262, 81%, 65%)" opacity="0.16"></circle><circle r="15" cx="686" cy="127" fill="hsl(262, 81%, 65%)" opacity="0.93"></circle><circle r="8" cx="310" cy="120" fill="hsl(183, 81%, 65%)" opacity="0.12"></circle><circle r="12.5" cx="678" cy="780" fill="hsl(278, 81%, 65%)" opacity="0.70"></circle><circle r="10.5" cx="619" cy="348" fill="hsl(298, 81%, 65%)" opacity="0.19"></circle><circle r="14" cx="514" cy="223" fill="hsl(273, 81%, 65%)" opacity="0.99"></circle><circle r="6.5" cx="233" cy="225" fill="hsl(105, 81%, 65%)" opacity="0.59"></circle><circle r="14" cx="643" cy="543" fill="hsl(296, 81%, 65%)" opacity="0.63"></circle><circle r="9" cx="337" cy="142" fill="hsl(191, 81%, 65%)" opacity="0.43"></circle><circle r="5.5" cx="303" cy="390" fill="hsl(163, 81%, 65%)" opacity="0.90"></circle><circle r="8" cx="368" cy="115" fill="hsl(211, 81%, 65%)" opacity="0.65"></circle><circle r="16" cx="28" cy="487" fill="hsl(154, 81%, 65%)" opacity="0.35"></circle><circle r="8" cx="783" cy="632" fill="hsl(157, 81%, 65%)" opacity="0.58"></circle><circle r="12" cx="427" cy="653" fill="hsl(248, 81%, 65%)" opacity="0.44"></circle><circle r="15.5" cx="554" cy="243" fill="hsl(285, 81%, 65%)" opacity="0.68"></circle><circle r="9" cx="497" cy="776" fill="hsl(265, 81%, 65%)" opacity="0.50"></circle><circle r="9" cx="577" cy="624" fill="hsl(292, 81%, 65%)" opacity="0.57"></circle><circle r="9.5" cx="417" cy="423" fill="hsl(244, 81%, 65%)" opacity="0.10"></circle><circle r="13.5" cx="681" cy="348" fill="hsl(278, 81%, 65%)" opacity="0.79"></circle><circle r="11.5" cx="480" cy="140" fill="hsl(225, 81%, 65%)" opacity="0.98"></circle><circle r="9" cx="612" cy="742" fill="hsl(297, 81%, 65%)" opacity="0.21"></circle><circle r="9.5" cx="772" cy="452" fill="hsl(175, 81%, 65%)" opacity="0.44"></circle><circle r="8.5" cx="251" cy="585" fill="hsl(121, 81%, 65%)" opacity="0.33"></circle><circle r="7" cx="759" cy="556" fill="hsl(193, 81%, 65%)" opacity="0.85"></circle><circle r="6.5" cx="369" cy="440" fill="hsl(216, 81%, 65%)" opacity="0.62"></circle><circle r="14.5" cx="527" cy="688" fill="hsl(276, 81%, 65%)" opacity="0.94"></circle><circle r="6.5" cx="205" cy="478" fill="hsl(94, 81%, 65%)" opacity="0.26"></circle><circle r="6" cx="784" cy="750" fill="hsl(157, 81%, 65%)" opacity="0.94"></circle><circle r="10" cx="43" cy="23" fill="hsl(129, 81%, 65%)" opacity="0.32"></circle><circle r="7" cx="196" cy="233" fill="hsl(90, 81%, 65%)" opacity="0.53"></circle><circle r="6.5" cx="374" cy="142" fill="hsl(210, 81%, 65%)" opacity="0.39"></circle><circle r="9" cx="63" cy="735" fill="hsl(132, 81%, 65%)" opacity="0.41"></circle><circle r="14" cx="404" cy="776" fill="hsl(239, 81%, 65%)" opacity="0.63"></circle><circle r="9" cx="721" cy="607" fill="hsl(242, 81%, 65%)" opacity="0.15"></circle><circle r="16" cx="629" cy="217" fill="hsl(298, 81%, 65%)" opacity="0.11"></circle><circle r="8.5" cx="354" cy="60" fill="hsl(226, 81%, 65%)" opacity="0.11"></circle><circle r="14" cx="661" cy="680" fill="hsl(292, 81%, 65%)" opacity="0.13"></circle><circle r="8.5" cx="232" cy="114" fill="hsl(121, 81%, 65%)" opacity="0.65"></circle><circle r="7.5" cx="54" cy="599" fill="hsl(139, 81%, 65%)" opacity="0.45"></circle><circle r="11" cx="666" cy="243" fill="hsl(286, 81%, 65%)" opacity="0.43"></circle><circle r="4" cx="174" cy="140" fill="hsl(90, 81%, 65%)" opacity="0.97"></circle><circle r="11" cx="246" cy="711" fill="hsl(112, 81%, 65%)" opacity="0.88"></circle><circle r="9" cx="777" cy="330" fill="hsl(157, 81%, 65%)" opacity="0.62"></circle><circle r="9" cx="109" cy="26" fill="hsl(74, 81%, 65%)" opacity="0.44"></circle><circle r="8.5" cx="69" cy="678" fill="hsl(132, 81%, 65%)" opacity="0.71"></circle><circle r="11.5" cx="438" cy="269" fill="hsl(252, 81%, 65%)" opacity="0.16"></circle><circle r="10" cx="748" cy="297" fill="hsl(210, 81%, 65%)" opacity="0.25"></circle><circle r="8.5" cx="559" cy="55" fill="hsl(164, 81%, 65%)" opacity="0.71"></circle><circle r="13.5" cx="471" cy="357" fill="hsl(259, 81%, 65%)" opacity="0.31"></circle><circle r="9.5" cx="339" cy="601" fill="hsl(196, 81%, 65%)" opacity="0.25"></circle><circle r="12" cx="641" cy="267" fill="hsl(296, 81%, 65%)" opacity="0.65"></circle><circle r="13" cx="558" cy="295" fill="hsl(285, 81%, 65%)" opacity="0.63"></circle><circle r="11.5" cx="776" cy="81" fill="hsl(164, 81%, 65%)" opacity="0.96"></circle><circle r="5" cx="142" cy="486" fill="hsl(93, 81%, 65%)" opacity="0.71"></circle><circle r="11" cx="647" cy="631" fill="hsl(296, 81%, 65%)" opacity="0.41"></circle><circle r="10.5" cx="695" cy="261" fill="hsl(268, 81%, 65%)" opacity="0.41"></circle><circle r="10" cx="247" cy="26" fill="hsl(163, 81%, 65%)" opacity="0.14"></circle><circle r="13.5" cx="501" cy="179" fill="hsl(260, 81%, 65%)" opacity="0.42"></circle><circle r="7.5" cx="374" cy="375" fill="hsl(216, 81%, 65%)" opacity="0.43"></circle><circle r="12" cx="697" cy="513" fill="hsl(268, 81%, 65%)" opacity="0.26"></circle><circle r="4.5" cx="139" cy="460" fill="hsl(93, 81%, 65%)" opacity="0.36"></circle><circle r="10" cx="413" cy="20" fill="hsl(204, 81%, 65%)" opacity="0.39"></circle><circle r="8" cx="93" cy="781" fill="hsl(117, 81%, 65%)" opacity="0.88"></circle><circle r="11.5" cx="576" cy="206" fill="hsl(292, 81%, 65%)" opacity="0.27"></circle><circle r="13" cx="571" cy="780" fill="hsl(288, 81%, 65%)" opacity="0.96"></circle><circle r="11.5" cx="451" cy="220" fill="hsl(255, 81%, 65%)" opacity="0.53"></circle><circle r="8.5" cx="478" cy="95" fill="hsl(188, 81%, 65%)" opacity="0.74"></circle><circle r="8" cx="162" cy="198" fill="hsl(90, 81%, 65%)" opacity="0.34"></circle><circle r="10.5" cx="473" cy="249" fill="hsl(259, 81%, 65%)" opacity="0.46"></circle><circle r="13.5" cx="518" cy="91" fill="hsl(189, 81%, 65%)" opacity="0.17"></circle><circle r="9" cx="731" cy="266" fill="hsl(226, 81%, 65%)" opacity="0.31"></circle><circle r="12" cx="573" cy="445" fill="hsl(288, 81%, 65%)" opacity="0.90"></circle><circle r="5" cx="23" cy="781" fill="hsl(161, 81%, 65%)" opacity="0.51"></circle><circle r="7" cx="400" cy="378" fill="hsl(239, 81%, 65%)" opacity="0.98"></circle><circle r="9" cx="311" cy="540" fill="hsl(163, 81%, 65%)" opacity="0.68"></circle><circle r="10.5" cx="291" cy="20" fill="hsl(226, 81%, 65%)" opacity="0.32"></circle><circle r="13.5" cx="416" cy="706" fill="hsl(244, 81%, 65%)" opacity="0.79"></circle><circle r="7.5" cx="96" cy="703" fill="hsl(117, 81%, 65%)" opacity="0.24"></circle><circle r="11" cx="397" cy="337" fill="hsl(232, 81%, 65%)" opacity="0.67"></circle><circle r="10.5" cx="591" cy="375" fill="hsl(295, 81%, 65%)" opacity="0.75"></circle><circle r="12.5" cx="720" cy="326" fill="hsl(242, 81%, 65%)" opacity="0.81"></circle><circle r="6" cx="777" cy="725" fill="hsl(157, 81%, 65%)" opacity="0.90"></circle><circle r="9.5" cx="728" cy="227" fill="hsl(226, 81%, 65%)" opacity="0.79"></circle><circle r="12.5" cx="620" cy="299" fill="hsl(298, 81%, 65%)" opacity="0.85"></circle><circle r="6.5" cx="197" cy="186" fill="hsl(92, 81%, 65%)" opacity="0.33"></circle><circle r="7" cx="549" cy="606" fill="hsl(281, 81%, 65%)" opacity="0.15"></circle><circle r="13" cx="584" cy="88" fill="hsl(215, 81%, 65%)" opacity="0.88"></circle><circle r="11" cx="376" cy="26" fill="hsl(227, 81%, 65%)" opacity="0.51"></circle><circle r="6" cx="175" cy="463" fill="hsl(89, 81%, 65%)" opacity="0.50"></circle><circle r="12" cx="453" cy="405" fill="hsl(255, 81%, 65%)" opacity="0.42"></circle><circle r="9.5" cx="692" cy="415" fill="hsl(268, 81%, 65%)" opacity="0.98"></circle><circle r="9.5" cx="348" cy="566" fill="hsl(196, 81%, 65%)" opacity="0.52"></circle><circle r="9.5" cx="603" cy="421" fill="hsl(297, 81%, 65%)" opacity="0.89"></circle><circle r="9" cx="577" cy="497" fill="hsl(292, 81%, 65%)" opacity="0.70"></circle><circle r="6" cx="198" cy="57" fill="hsl(98, 81%, 65%)" opacity="0.85"></circle><circle r="8" cx="271" cy="414" fill="hsl(130, 81%, 65%)" opacity="0.70"></circle><circle r="8" cx="778" cy="783" fill="hsl(157, 81%, 65%)" opacity="0.68"></circle><circle r="7" cx="175" cy="510" fill="hsl(89, 81%, 65%)" opacity="0.53"></circle><circle r="11" cx="263" cy="774" fill="hsl(130, 81%, 65%)" opacity="0.61"></circle><circle r="8" cx="309" cy="419" fill="hsl(163, 81%, 65%)" opacity="0.71"></circle><circle r="6" cx="102" cy="446" fill="hsl(110, 81%, 65%)" opacity="0.47"></circle><circle r="7" cx="268" cy="151" fill="hsl(141, 81%, 65%)" opacity="0.27"></circle><circle r="14.5" cx="451" cy="754" fill="hsl(255, 81%, 65%)" opacity="0.81"></circle><circle r="10" cx="62" cy="145" fill="hsl(137, 81%, 65%)" opacity="0.95"></circle><circle r="13" cx="372" cy="680" fill="hsl(216, 81%, 65%)" opacity="0.81"></circle><circle r="11.5" cx="116" cy="252" fill="hsl(103, 81%, 65%)" opacity="0.73"></circle><circle r="10" cx="40" cy="645" fill="hsl(147, 81%, 65%)" opacity="0.85"></circle><circle r="12.5" cx="666" cy="389" fill="hsl(286, 81%, 65%)" opacity="0.53"></circle><circle r="15" cx="668" cy="730" fill="hsl(286, 81%, 65%)" opacity="0.57"></circle><circle r="4.5" cx="351" cy="418" fill="hsl(207, 81%, 65%)" opacity="0.91"></circle><circle r="11.5" cx="312" cy="77" fill="hsl(199, 81%, 65%)" opacity="0.69"></circle><circle r="8" cx="658" cy="596" fill="hsl(292, 81%, 65%)" opacity="0.49"></circle><circle r="12" cx="709" cy="752" fill="hsl(256, 81%, 65%)" opacity="0.83"></circle><circle r="11" cx="700" cy="697" fill="hsl(268, 81%, 65%)" opacity="0.41"></circle><circle r="11" cx="536" cy="363" fill="hsl(276, 81%, 65%)" opacity="0.37"></circle><circle r="7" cx="117" cy="200" fill="hsl(103, 81%, 65%)" opacity="0.51"></circle><circle r="7" cx="337" cy="328" fill="hsl(185, 81%, 65%)" opacity="0.14"></circle><circle r="13" cx="496" cy="393" fill="hsl(265, 81%, 65%)" opacity="0.81"></circle><circle r="7.5" cx="83" cy="214" fill="hsl(124, 81%, 65%)" opacity="0.39"></circle><circle r="10" cx="299" cy="746" fill="hsl(152, 81%, 65%)" opacity="0.21"></circle><circle r="8" cx="425" cy="383" fill="hsl(244, 81%, 65%)" opacity="0.62"></circle><circle r="8" cx="50" cy="267" fill="hsl(139, 81%, 65%)" opacity="0.26"></circle><circle r="10" cx="134" cy="677" fill="hsl(98, 81%, 65%)" opacity="0.76"></circle><circle r="11.5" cx="776" cy="138" fill="hsl(160, 81%, 65%)" opacity="0.11"></circle><circle r="10" cx="502" cy="598" fill="hsl(269, 81%, 65%)" opacity="0.12"></circle><circle r="9" cx="157" cy="556" fill="hsl(90, 81%, 65%)" opacity="0.42"></circle><circle r="17" cx="455" cy="467" fill="hsl(255, 81%, 65%)" opacity="0.30"></circle><circle r="11" cx="20" cy="73" fill="hsl(164, 81%, 65%)" opacity="0.52"></circle><circle r="6" cx="138" cy="431" fill="hsl(93, 81%, 65%)" opacity="0.33"></circle><circle r="13.5" cx="556" cy="739" fill="hsl(285, 81%, 65%)" opacity="0.49"></circle><circle r="11" cx="362" cy="198" fill="hsl(207, 81%, 65%)" opacity="0.41"></circle><circle r="9.5" cx="779" cy="240" fill="hsl(157, 81%, 65%)" opacity="0.45"></circle><circle r="10.5" cx="613" cy="28" fill="hsl(168, 81%, 65%)" opacity="0.44"></circle><circle r="13.5" cx="342" cy="282" fill="hsl(196, 81%, 65%)" opacity="0.16"></circle><circle r="8.5" cx="170" cy="23" fill="hsl(81, 81%, 65%)" opacity="0.75"></circle><circle r="9" cx="18" cy="568" fill="hsl(161, 81%, 65%)" opacity="0.30"></circle><circle r="7" cx="692" cy="582" fill="hsl(268, 81%, 65%)" opacity="0.23"></circle><circle r="10.5" cx="203" cy="769" fill="hsl(94, 81%, 65%)" opacity="0.27"></circle><circle r="11" cx="534" cy="399" fill="hsl(276, 81%, 65%)" opacity="0.35"></circle><circle r="10.5" cx="694" cy="549" fill="hsl(268, 81%, 65%)" opacity="0.16"></circle><circle r="7.5" cx="312" cy="362" fill="hsl(163, 81%, 65%)" opacity="0.84"></circle><circle r="7" cx="256" cy="471" fill="hsl(121, 81%, 65%)" opacity="0.82"></circle><circle r="9" cx="591" cy="313" fill="hsl(295, 81%, 65%)" opacity="0.20"></circle><circle r="11" cx="393" cy="562" fill="hsl(232, 81%, 65%)" opacity="0.70"></circle><circle r="4" cx="142" cy="116" fill="hsl(86, 81%, 65%)" opacity="0.96"></circle><circle r="5.5" cx="217" cy="639" fill="hsl(98, 81%, 65%)" opacity="0.96"></circle><circle r="15.5" cx="400" cy="503" fill="hsl(232, 81%, 65%)" opacity="0.58"></circle><circle r="10.5" cx="399" cy="457" fill="hsl(232, 81%, 65%)" opacity="0.96"></circle><circle r="13.5" cx="609" cy="508" fill="hsl(297, 81%, 65%)" opacity="0.78"></circle><circle r="10" cx="719" cy="480" fill="hsl(242, 81%, 65%)" opacity="0.48"></circle><circle r="10.5" cx="90" cy="489" fill="hsl(117, 81%, 65%)" opacity="0.51"></circle><circle r="14" cx="131" cy="323" fill="hsl(98, 81%, 65%)" opacity="0.29"></circle><circle r="10.5" cx="553" cy="548" fill="hsl(285, 81%, 65%)" opacity="0.69"></circle><circle r="11" cx="630" cy="714" fill="hsl(298, 81%, 65%)" opacity="0.40"></circle><circle r="8" cx="566" cy="18" fill="hsl(131, 81%, 65%)" opacity="0.75"></circle><circle r="10" cx="305" cy="696" fill="hsl(163, 81%, 65%)" opacity="0.54"></circle><circle r="10" cx="189" cy="707" fill="hsl(90, 81%, 65%)" opacity="0.75"></circle><circle r="8.5" cx="575" cy="339" fill="hsl(288, 81%, 65%)" opacity="0.78"></circle><circle r="14" cx="681" cy="204" fill="hsl(278, 81%, 65%)" opacity="0.91"></circle><circle r="10" cx="22" cy="133" fill="hsl(168, 81%, 65%)" opacity="0.98"></circle><circle r="13" cx="694" cy="647" fill="hsl(268, 81%, 65%)" opacity="0.22"></circle><circle r="8" cx="383" cy="409" fill="hsl(225, 81%, 65%)" opacity="0.34"></circle><circle r="10.5" cx="239" cy="271" fill="hsl(112, 81%, 65%)" opacity="0.47"></circle><circle r="10.5" cx="65" cy="435" fill="hsl(132, 81%, 65%)" opacity="0.56"></circle><circle r="9" cx="381" cy="629" fill="hsl(225, 81%, 65%)" opacity="0.11"></circle><circle r="9" cx="732" cy="701" fill="hsl(226, 81%, 65%)" opacity="0.29"></circle><circle r="15" cx="623" cy="776" fill="hsl(298, 81%, 65%)" opacity="0.45"></circle><circle r="12" cx="442" cy="330" fill="hsl(252, 81%, 65%)" opacity="0.42"></circle><circle r="11" cx="416" cy="130" fill="hsl(216, 81%, 65%)" opacity="0.80"></circle><circle r="13.5" cx="649" cy="493" fill="hsl(296, 81%, 65%)" opacity="0.90"></circle><circle r="17" cx="464" cy="694" fill="hsl(259, 81%, 65%)" opacity="0.87"></circle><circle r="7" cx="486" cy="19" fill="hsl(150, 81%, 65%)" opacity="0.93"></circle><circle r="6" cx="198" cy="152" fill="hsl(95, 81%, 65%)" opacity="0.65"></circle><circle r="9" cx="311" cy="657" fill="hsl(163, 81%, 65%)" opacity="0.14"></circle><circle r="8" cx="523" cy="616" fill="hsl(273, 81%, 65%)" opacity="0.52"></circle><circle r="8" cx="742" cy="730" fill="hsl(210, 81%, 65%)" opacity="0.60"></circle><circle r="8.5" cx="778" cy="407" fill="hsl(157, 81%, 65%)" opacity="0.51"></circle><circle r="8.5" cx="107" cy="556" fill="hsl(110, 81%, 65%)" opacity="0.13"></circle><circle r="9" cx="406" cy="167" fill="hsl(229, 81%, 65%)" opacity="0.17"></circle><circle r="7.5" cx="277" cy="366" fill="hsl(141, 81%, 65%)" opacity="0.45"></circle><circle r="7" cx="245" cy="503" fill="hsl(112, 81%, 65%)" opacity="0.68"></circle><circle r="9" cx="545" cy="580" fill="hsl(281, 81%, 65%)" opacity="0.64"></circle><circle r="11" cx="776" cy="688" fill="hsl(157, 81%, 65%)" opacity="0.95"></circle><circle r="6.5" cx="449" cy="13" fill="hsl(182, 81%, 65%)" opacity="0.82"></circle><circle r="7" cx="109" cy="739" fill="hsl(110, 81%, 65%)" opacity="0.81"></circle><circle r="7" cx="786" cy="547" fill="hsl(157, 81%, 65%)" opacity="0.45"></circle><circle r="15.5" cx="474" cy="526" fill="hsl(259, 81%, 65%)" opacity="0.76"></circle><circle r="9" cx="445" cy="104" fill="hsl(203, 81%, 65%)" opacity="0.89"></circle><circle r="14.5" cx="596" cy="257" fill="hsl(295, 81%, 65%)" opacity="0.45"></circle><circle r="11" cx="68" cy="353" fill="hsl(132, 81%, 65%)" opacity="0.67"></circle><circle r="8" cx="535" cy="643" fill="hsl(276, 81%, 65%)" opacity="0.44"></circle><circle r="8" cx="244" cy="377" fill="hsl(112, 81%, 65%)" opacity="0.58"></circle><circle r="8.5" cx="346" cy="363" fill="hsl(196, 81%, 65%)" opacity="0.69"></circle><circle r="12.5" cx="770" cy="26" fill="hsl(169, 81%, 65%)" opacity="0.81"></circle><circle r="10.5" cx="268" cy="81" fill="hsl(168, 81%, 65%)" opacity="0.93"></circle><circle r="12" cx="21" cy="699" fill="hsl(161, 81%, 65%)" opacity="0.45"></circle><circle r="8" cx="130" cy="518" fill="hsl(98, 81%, 65%)" opacity="0.92"></circle><circle r="6.5" cx="522" cy="15" fill="hsl(130, 81%, 65%)" opacity="0.54"></circle><circle r="9" cx="234" cy="425" fill="hsl(105, 81%, 65%)" opacity="0.30"></circle><circle r="13" cx="331" cy="26" fill="hsl(237, 81%, 65%)" opacity="0.98"></circle><circle r="6" cx="432" cy="187" fill="hsl(241, 81%, 65%)" opacity="0.53"></circle><circle r="17" cx="640" cy="91" fill="hsl(243, 81%, 65%)" opacity="0.65"></circle><circle r="10" cx="171" cy="270" fill="hsl(89, 81%, 65%)" opacity="0.70"></circle><circle r="9" cx="559" cy="642" fill="hsl(285, 81%, 65%)" opacity="0.93"></circle><circle r="8" cx="731" cy="448" fill="hsl(226, 81%, 65%)" opacity="0.58"></circle><circle r="7.5" cx="705" cy="15" fill="hsl(184, 81%, 65%)" opacity="0.30"></circle><circle r="12.5" cx="679" cy="468" fill="hsl(278, 81%, 65%)" opacity="0.99"></circle><circle r="5" cx="202" cy="115" fill="hsl(103, 81%, 65%)" opacity="0.44"></circle><circle r="8" cx="720" cy="418" fill="hsl(242, 81%, 65%)" opacity="0.10"></circle><circle r="9.5" cx="292" cy="455" fill="hsl(152, 81%, 65%)" opacity="0.54"></circle><circle r="11.5" cx="350" cy="522" fill="hsl(207, 81%, 65%)" opacity="0.73"></circle><circle r="8" cx="188" cy="428" fill="hsl(90, 81%, 65%)" opacity="0.40"></circle><circle r="6" cx="212" cy="528" fill="hsl(94, 81%, 65%)" opacity="0.95"></circle><circle r="10.5" cx="611" cy="642" fill="hsl(297, 81%, 65%)" opacity="0.71"></circle><circle r="13.5" cx="340" cy="766" fill="hsl(196, 81%, 65%)" opacity="0.73"></circle><circle r="11" cx="536" cy="433" fill="hsl(276, 81%, 65%)" opacity="0.86"></circle><circle r="9" cx="34" cy="232" fill="hsl(154, 81%, 65%)" opacity="0.87"></circle><circle r="7" cx="133" cy="593" fill="hsl(98, 81%, 65%)" opacity="0.88"></circle><circle r="6.5" cx="215" cy="560" fill="hsl(98, 81%, 65%)" opacity="0.12"></circle><circle r="7.5" cx="87" cy="591" fill="hsl(124, 81%, 65%)" opacity="0.33"></circle><circle r="8" cx="566" cy="364" fill="hsl(288, 81%, 65%)" opacity="0.55"></circle><circle r="9" cx="702" cy="446" fill="hsl(256, 81%, 65%)" opacity="0.48"></circle><circle r="11.5" cx="568" cy="403" fill="hsl(288, 81%, 65%)" opacity="0.59"></circle><circle r="2.5" cx="7" cy="792" fill="hsl(168, 81%, 65%)" opacity="0.28"></circle><circle r="7" cx="169" cy="601" fill="hsl(89, 81%, 65%)" opacity="0.86"></circle><circle r="7.5" cx="466" cy="788" fill="hsl(259, 81%, 65%)" opacity="0.80"></circle><circle r="12" cx="516" cy="291" fill="hsl(273, 81%, 65%)" opacity="0.60"></circle><circle r="8.5" cx="149" cy="733" fill="hsl(93, 81%, 65%)" opacity="0.76"></circle><circle r="5" cx="788" cy="372" fill="hsl(141, 81%, 65%)" opacity="0.92"></circle><circle r="9.5" cx="400" cy="90" fill="hsl(210, 81%, 65%)" opacity="0.87"></circle><circle r="5.5" cx="698" cy="605" fill="hsl(268, 81%, 65%)" opacity="0.90"></circle><circle r="12.5" cx="516" cy="331" fill="hsl(273, 81%, 65%)" opacity="0.21"></circle><circle r="12.5" cx="658" cy="34" fill="hsl(186, 81%, 65%)" opacity="0.64"></circle><circle r="9.5" cx="665" cy="570" fill="hsl(286, 81%, 65%)" opacity="0.91"></circle><circle r="13.5" cx="498" cy="445" fill="hsl(265, 81%, 65%)" opacity="0.30"></circle><circle r="8" cx="309" cy="322" fill="hsl(163, 81%, 65%)" opacity="0.28"></circle><circle r="9.5" cx="340" cy="451" fill="hsl(196, 81%, 65%)" opacity="0.61"></circle><circle r="13" cx="587" cy="671" fill="hsl(292, 81%, 65%)" opacity="0.35"></circle><circle r="7.5" cx="213" cy="603" fill="hsl(98, 81%, 65%)" opacity="0.88"></circle><circle r="8.5" cx="750" cy="497" fill="hsl(193, 81%, 65%)" opacity="0.31"></circle><circle r="11" cx="565" cy="699" fill="hsl(288, 81%, 65%)" opacity="0.24"></circle><circle r="6.5" cx="120" cy="165" fill="hsl(102, 81%, 65%)" opacity="0.95"></circle><circle r="10.5" cx="298" cy="256" fill="hsl(152, 81%, 65%)" opacity="0.31"></circle><circle r="12.5" cx="510" cy="498" fill="hsl(269, 81%, 65%)" opacity="0.76"></circle><circle r="6.5" cx="219" cy="357" fill="hsl(98, 81%, 65%)" opacity="0.11"></circle><circle r="17.5" cx="550" cy="142" fill="hsl(244, 81%, 65%)" opacity="0.56"></circle><circle r="7.5" cx="749" cy="418" fill="hsl(210, 81%, 65%)" opacity="0.48"></circle><circle r="11" cx="115" cy="392" fill="hsl(103, 81%, 65%)" opacity="0.84"></circle><circle r="7" cx="294" cy="219" fill="hsl(152, 81%, 65%)" opacity="0.61"></circle><circle r="9.5" cx="102" cy="118" fill="hsl(97, 81%, 65%)" opacity="0.79"></circle><circle r="7.5" cx="367" cy="324" fill="hsl(216, 81%, 65%)" opacity="0.34"></circle><circle r="10" cx="271" cy="315" fill="hsl(130, 81%, 65%)" opacity="0.98"></circle><circle r="10" cx="647" cy="353" fill="hsl(296, 81%, 65%)" opacity="0.75"></circle><circle r="13.5" cx="603" cy="561" fill="hsl(297, 81%, 65%)" opacity="0.50"></circle><circle r="13" cx="541" cy="473" fill="hsl(281, 81%, 65%)" opacity="0.83"></circle><circle r="7" cx="230" cy="668" fill="hsl(105, 81%, 65%)" opacity="0.57"></circle><circle r="8.5" cx="716" cy="46" fill="hsl(198, 81%, 65%)" opacity="0.54"></circle><circle r="7.5" cx="510" cy="49" fill="hsl(150, 81%, 65%)" opacity="0.75"></circle><circle r="9" cx="559" cy="519" fill="hsl(285, 81%, 65%)" opacity="0.96"></circle><circle r="10.5" cx="409" cy="206" fill="hsl(239, 81%, 65%)" opacity="0.66"></circle><circle r="14.5" cx="719" cy="177" fill="hsl(241, 81%, 65%)" opacity="0.44"></circle><circle r="10" cx="740" cy="774" fill="hsl(210, 81%, 65%)" opacity="0.40"></circle><circle r="8.5" cx="278" cy="550" fill="hsl(141, 81%, 65%)" opacity="0.90"></circle><circle r="8" cx="257" cy="197" fill="hsl(121, 81%, 65%)" opacity="0.16"></circle><circle r="14.5" cx="653" cy="430" fill="hsl(292, 81%, 65%)" opacity="0.76"></circle><circle r="8.5" cx="606" cy="611" fill="hsl(297, 81%, 65%)" opacity="0.65"></circle><circle r="12" cx="624" cy="137" fill="hsl(267, 81%, 65%)" opacity="0.73"></circle><circle r="10" cx="320" cy="193" fill="hsl(174, 81%, 65%)" opacity="0.22"></circle><circle r="5" cx="174" cy="83" fill="hsl(82, 81%, 65%)" opacity="0.62"></circle><circle r="3.5" cx="173" cy="116" fill="hsl(87, 81%, 65%)" opacity="0.46"></circle><circle r="6.5" cx="296" cy="165" fill="hsl(158, 81%, 65%)" opacity="0.90"></circle></svg>